<?xml version="1.0" encoding="utf-8"?>
<!-- Generator: Adobe Illustrator 19.0.0, SVG Export Plug-In . SVG Version: 6.00 Build 0)  -->
<svg version="1.1" id="Capa_1" xmlns="http://www.w3.org/2000/svg" xmlns:xlink="http://www.w3.org/1999/xlink" x="0px" y="0px"
	 viewBox="0 0 420.8 356.3" style="enable-background:new 0 0 420.8 356.3;" xml:space="preserve">
<style type="text/css">
	.st0{fill-rule:evenodd;clip-rule:evenodd;fill:#385FD3;}
	.st1{clip-path:url(#SVGID_2_);fill:#385FD3;}
	.st2{clip-path:url(#SVGID_4_);fill:#385FD3;}
	.st3{clip-path:url(#SVGID_6_);fill:#385FD3;}
	.st4{clip-path:url(#SVGID_8_);fill:#385FD3;}
	.st5{clip-path:url(#SVGID_10_);fill:#385FD3;}
	.st6{clip-path:url(#SVGID_12_);fill:#385FD3;}
	.st7{clip-path:url(#SVGID_14_);fill:#385FD3;}
	.st8{clip-path:url(#SVGID_16_);}
	.st9{clip-path:url(#SVGID_18_);fill:#385FD3;}
	.st10{clip-path:url(#SVGID_20_);fill:#385FD3;}
	.st11{clip-path:url(#SVGID_22_);fill:#385FD3;}
	.st12{clip-path:url(#SVGID_24_);fill:#385FD3;}
	.st13{clip-path:url(#SVGID_26_);fill:#385FD3;}
	.st14{clip-path:url(#SVGID_28_);fill:#385FD3;}
	.st15{clip-path:url(#SVGID_30_);fill:#385FD3;}
	.st16{clip-path:url(#SVGID_32_);fill:#385FD3;}
	.st17{clip-path:url(#SVGID_34_);fill:#385FD3;}
	.st18{clip-path:url(#SVGID_36_);fill:#385FD3;}
	.st19{clip-path:url(#SVGID_38_);fill:#385FD3;}
	.st20{clip-path:url(#SVGID_40_);fill:#385FD3;}
	.st21{clip-path:url(#SVGID_42_);fill:#385FD3;}
	.st22{clip-path:url(#SVGID_44_);fill:#385FD3;}
	.st23{clip-path:url(#SVGID_46_);fill:#385FD3;}
	.st24{clip-path:url(#SVGID_48_);fill:#385FD3;}
	.st25{clip-path:url(#SVGID_50_);fill:#385FD3;}
	.st26{clip-path:url(#SVGID_52_);fill:#385FD3;}
	.st27{clip-path:url(#SVGID_54_);fill:#385FD3;}
	.st28{clip-path:url(#SVGID_56_);fill:#385FD3;}
	.st29{clip-path:url(#SVGID_58_);fill:#385FD3;}
	.st30{clip-path:url(#SVGID_60_);fill:#385FD3;}
	.st31{clip-path:url(#SVGID_62_);fill:#385FD3;}
	.st32{clip-path:url(#SVGID_64_);fill:#385FD3;}
	.st33{clip-path:url(#SVGID_66_);fill:#385FD3;}
	.st34{clip-path:url(#SVGID_68_);fill:#385FD3;}
	.st35{clip-path:url(#SVGID_70_);fill:#385FD3;}
	.st36{clip-path:url(#SVGID_72_);}
	.st37{clip-path:url(#SVGID_74_);}
	.st38{clip-path:url(#SVGID_76_);}
	.st39{clip-path:url(#SVGID_78_);}
	.st40{clip-path:url(#SVGID_80_);}
	.st41{clip-path:url(#SVGID_82_);}
	.st42{clip-path:url(#SVGID_84_);}
	.st43{clip-path:url(#SVGID_86_);}
	.st44{clip-path:url(#SVGID_88_);}
	.st45{clip-path:url(#SVGID_90_);}
	.st46{clip-path:url(#SVGID_92_);}
	.st47{clip-path:url(#SVGID_94_);}
	.st48{clip-path:url(#SVGID_96_);}
	.st49{clip-path:url(#SVGID_98_);}
	.st50{clip-path:url(#SVGID_100_);}
	.st51{clip-path:url(#SVGID_102_);}
	.st52{clip-path:url(#SVGID_104_);}
	.st53{clip-path:url(#SVGID_106_);fill:#385FD3;}
	.st54{clip-path:url(#SVGID_108_);}
</style>
<g>
	<path class="st0" d="M205.5,14.9c-0.8,0.1-1.5,0.2-1.5,0.2c-0.1,0.1-1.6,4.1-2.5,6.6c-0.8,2.2-2.3,6.6-3.1,9.2l-0.7,2.3l0.8,0.7
		c2.1,1.8,3.5,3.7,4.6,6c0.9,1.9,1.4,3.4,1.7,5.5l0.2,1.6l1.3,0.4c3.4,1,9.2,3,13.3,4.7c8.1,3.4,17.8,8.5,24.6,13.1l0.6,0.4l1.1-0.7
		c4.8-3.3,10.9-4.1,16.4-2.2c1.5,0.5,3.7,1.7,5,2.6c1.9,1.4,4.1,3.8,5.1,5.6l0.3,0.6l4.6,0c2.5,0,5.3,0.1,6.2,0.1
		c0.9,0.1,1.6,0.1,1.6,0c0,0-0.2-1-0.6-2.2c-2.5-8.3-6.8-16.7-11.9-23.6c-10.9-14.5-26.2-24.7-43.5-29c-4-1-7.1-1.5-11.9-2
		C215.2,14.9,207.4,14.8,205.5,14.9"/>
	<path class="st0" d="M189.9,17.5c-2.2,0.6-6.3,2-8.5,2.9c-9,3.6-16.9,8.7-24.2,15.6c-2.4,2.2-7,7.2-6.8,7.4c0,0,1.2-0.1,2.6-0.3
		c4.8-0.6,10.4-1,14-1h1.8l0.2-0.6c0.5-1.2,1.7-3.4,2.5-4.5c1.7-2.3,4.6-4.6,7-5.8c2.4-1.1,4.9-1.7,7.4-1.7l1.6,0l0.1-0.4
		c0.9-2.9,2.1-6.5,2.9-8.9c0.6-1.6,1-3,1-3.1C191.6,17.1,190.9,17.3,189.9,17.5"/>
	<path class="st0" d="M162.2,53c-3.6,0.2-9.1,0.8-12.8,1.5c-2.1,0.4-6.8,1.3-7.2,1.4c-0.2,0.1-0.5,0.5-1.1,1.6
		c-4.2,8.3-6.8,17.3-7.8,26.8c-0.3,2.6-0.4,10.4-0.2,13c1.1,14.9,6,28.3,14.5,40.1c1.7,2.3,4.9,6.2,5.1,6.2c0.1,0,0.9-1.1,1.8-2.5
		c3.4-4.9,6.9-9.5,10.5-13.8l1.7-2.1l-0.2-0.6c-1-2.5-1.3-4.5-1.2-7.5c0.1-2.1,0.1-2.6,0.5-3.9c0.2-0.8,0.6-2,0.8-2.5
		c1.7-4,4.8-7.5,8.7-9.4c0.7-0.3,1.3-0.6,1.4-0.7c0.1,0,0.2-1.2,0.3-4.8c0.3-9.5,1-18.7,2.2-27.7c0.2-1.3,0.3-2.5,0.3-2.7
		c0-0.2-0.3-0.4-1-0.7c-2.8-1.3-5.5-3.6-7.3-6.3c-0.8-1.3-2-3.7-2.3-4.8l-0.2-0.8l-2.3,0C165,52.9,163.2,52.9,162.2,53"/>
	<path class="st0" d="M201.6,58.7c-2.5,3.5-6.1,6.1-10.3,7.3c-0.6,0.2-1.1,0.3-1.1,0.3c-0.1,0.1-0.7,4.8-1,7.5
		c-0.5,3.8-0.9,9.4-1.2,13.5c-0.2,4-0.5,12.1-0.4,12.3c0,0.1,0.4,0.3,0.8,0.4c0.7,0.2,1.9,0.6,3.1,1.1l0.5,0.2l1.4-1
		c9.7-7.3,19.9-13.2,30.7-17.8c3.4-1.4,5.8-2.4,10-3.8l3.8-1.3l0.3-1.2c0.2-0.7,0.3-1.3,0.3-1.4c0-0.2-2-1.5-5.6-3.7
		c-7.8-4.7-15.2-8.2-23.8-11.3c-2.1-0.8-6.2-2-6.5-2C202.4,57.6,202,58.1,201.6,58.7"/>
	<path class="st0" d="M274.7,82.4c0,0.1-0.1,0.6-0.2,1.2c-0.2,1.3-0.7,2.8-1.4,4.4l-0.5,1.2l0.6,0.7c0.4,0.4,1.2,1.4,2,2.2
		c3.3,3.6,7.8,9,10.7,13c0.4,0.5,0.6,0.7,0.7,0.6c0.1-0.2,0.7-4.3,0.9-6.6c0.3-2.5,0.2-11.7-0.1-14.2c-0.1-1-0.2-1.9-0.3-2
		c-0.1-0.1-5.7-0.5-8.9-0.5C275.3,82.3,274.7,82.3,274.7,82.4"/>
	<path class="st0" d="M237,88.9c-12.3,4.2-23.5,10.1-34.6,18.1l-2.4,1.7l0.6,1.2c1.1,2.4,1.6,4.4,1.7,7.1c0.1,2.1-0.1,3.8-0.6,5.6
		c-1.3,5-4.8,9.3-9.4,11.7c-0.7,0.4-1.5,0.8-1.9,0.9c-0.6,0.2-0.6,0.3-0.6,0.6c0,0.2,0.3,1.8,0.5,3.5c1.4,8.9,3.5,18.8,5.9,27.5
		l0.4,1.6l1.4,0.2c10,1.7,21.1,1.2,31-1.3c11.5-2.9,21.6-8.1,30.8-15.8c2.4-2,7.5-7,9.4-9.4c3-3.6,5.9-7.7,8-11.3
		c1.9-3.2,4.3-8.3,5.2-10.8l0.2-0.7l-1.6-2.2c-3.2-4.5-6.8-9.2-10.3-13.3c-2.6-3.1-6.1-6.9-6.3-6.8c-3.8,1.7-6.8,2.3-10.1,2
		c-4.6-0.4-8.5-2.3-11.6-5.6c-1.4-1.4-2.2-2.5-3-4c-0.3-0.6-0.6-1-0.6-1C239.3,88.1,238.2,88.5,237,88.9"/>
	<path class="st0" d="M173.6,133.9c-0.1,0.1-1.1,1.4-2.3,2.9c-2.3,2.9-4.8,6.2-7,9.3c-1.9,2.7-3.6,5.2-3.6,5.4
		c0,0.1,0.7,0.6,1.5,1.3c6.3,5,13.1,8.9,20.7,11.8c1,0.4,1.8,0.6,1.8,0.6c0-0.1-0.2-1.2-0.6-2.5c-1.8-7.3-3.8-17.3-4.7-24.1
		c-0.2-1.1-0.3-2.1-0.3-2.3c-0.1-0.3-0.2-0.4-1.2-0.7c-0.6-0.2-1.8-0.7-2.6-1.1s-1.5-0.7-1.5-0.7
		C173.8,133.6,173.7,133.8,173.6,133.9"/>
	<g>
		<defs>
			<path id="SVGID_1_" d="M289.8,192.1c-0.3,0.3-0.4,0.3-0.7,0.2c-0.2-0.1-0.4-0.1-0.5,0c-0.2,0.1-0.6,0.9-0.7,1.7
				c-0.1,0.4-0.2,0.7-0.7,1.2c-0.4,0.4-0.6,0.7-0.6,1c0,0.4-0.7,1.7-2.1,4.1c-0.6,1-0.7,1.4-1,2.6c-0.2,0.8-0.8,2.7-1.5,4.6
				c-0.6,1.8-1.4,4.1-1.7,5.2c-1.3,5.1-1.3,5.2-1.6,8.2c-0.2,2.6-0.3,3.2-0.8,4.8c-0.3,1-0.6,1.9-0.7,2.1c-0.3,0.4-0.8,0.4-1.9-0.2
				l-1-0.5l-3.2,0.5c-3.2,0.5-4.1,0.7-4.7,0.9c-0.3,0.1-0.3,0-0.4-0.3l-0.1-0.4l-0.2,0.5c-0.2,0.5-0.6,1-0.8,1
				c-0.1,0-0.2-0.2-0.2-0.5c-0.1-0.6-0.5-1-0.5-0.5c0,0.2-0.1,0.3-0.2,0.2c-0.3-0.1-0.3,0.7,0.1,1.2c0.2,0.3,0.3,0.4,0,0.5
				c-0.1,0.1-0.3,0.1-0.5,0c-0.7-0.3-1.6-0.4-2.1-0.3c-0.5,0.1-0.7,0.2-2.3,2c-1.9,2-3.2,3.8-5.2,6.8c-2.5,3.8-4,7-5.7,12
				c-0.8,2.4-0.9,2.9-0.8,3.1c0.3,0.4,0.2,1.2-0.2,1.2c-0.1,0-0.2-0.1-0.3-0.2c-0.1-0.2-0.1-0.2-0.2,0.1c-0.6,2.6-0.7,5.8-0.4,9.8
				c0.1,1.5,0.2,3.3,0.2,4c0,0.9,0.1,1.2,0.2,1.4c0.1,0.1,0.3,0.6,0.4,1.1c0.3,1.1,0.7,1.8,1.8,3.1c1,1.3,2.5,2.6,3.5,3.1
				c0.4,0.2,1,0.6,1.2,0.8c0.3,0.3,0.8,0.4,2.2,0.8c1,0.2,1.9,0.4,2.1,0.5c0.2,0.1,0.3,0,0.4-0.2c0.1-0.4,0.5-0.5,0.9-0.1
				c0.6,0.6,1.9,0.3,2.7-0.6c0.5-0.6,0.9-0.8,1.2-0.5c0.2,0.2,0.3,0.2,0.6-0.3c0.2-0.3,0.5-0.5,0.8-0.6c0.2,0,0.5-0.2,0.6-0.3
				c0.1-0.1,0.4-0.3,0.6-0.3c0.2,0,0.7-0.3,1.1-0.6c1.2-0.9,1.8-1.6,2.7-3.6l0.8-1.9l0.3,0.3c0.3,0.3,0.3,0.3,0.5,0
				c0.1-0.1,0.2-0.3,0.2-0.3c0-0.1,1-0.7,2.7-1.8c0.5-0.3,1.4-1.4,1.8-2.1c0.1-0.3,0.2-0.6,0.1-0.9c0-0.3,0-0.5,0.1-0.6
				c0.1,0,0.1,0,0.1,0.1c0,0.2,0.3,0.2,0.5-0.1c0.3-0.4,0.6,0.1,0.7,1.1c0.1,0.9,0.2,1,0.5,1c0.2,0,0.4-0.1,0.5-0.2
				c0.1-0.2,0.2,0,0.2,1.3l0,1.6l1,2c0.6,1.1,1.2,2.2,1.3,2.4c0.4,0.8,0.6,0.4,0.2-0.7c-0.2-0.7-0.1-0.8,0.4-0.7
				c0.3,0.1,0.4,0.3,0.6,1.6c0.3,1.5,0.5,2.1,0.5,1.5c0-0.5,0.4-0.5,0.9,0c0.5,0.6,0.5,0.7,0.1,1.1c-0.3,0.3-0.3,0.3-0.1,0.7
				c0.3,0.6,1.1,1.2,2.5,1.9c0.7,0.4,1.6,0.9,2,1.2c0.6,0.4,0.9,0.6,1.1,0.5c0.7-0.2,0.9-0.2,0.9,0c0,0.3,0.5,0.2,1.2-0.2
				c0.7-0.4,0.9-0.5,0.9-0.2c0,0.1,0.2-0.1,0.5-0.4l0.5-0.5l0,0.8l0.4-0.5c0.4-0.4,0.4-0.5,0.2-0.6c-0.2-0.1-0.2-0.2,0.2-0.4
				c0.2-0.1,0.6-0.5,0.8-0.9c0.2-0.4,0.7-1,1.1-1.4c0.5-0.5,0.6-0.8,0.6-1.2c0-0.4-0.1-0.5-0.4-0.6c-0.3-0.1-0.4-0.1-0.6,0.1
				c-0.4,0.3-0.8,0.5-1.7,0.6c-0.6,0.1-0.8,0-1.4-0.2c-1-0.5-2.3-1.6-3.5-3.1c-0.6-0.7-1.1-1.3-1.2-1.3c-0.1,0-0.3-0.2-0.5-0.3
				c-0.3-0.3-0.3-0.4-0.3-1.4v-1l-0.4,0.1c-0.6,0.1-0.9-0.4-0.8-1.6c0.1-0.9,0.1-0.9-0.2-0.7c-0.3,0.2-0.3,0.2-0.3-0.6
				c0-0.8-0.1-1-0.4-0.7c-0.1,0.1-0.2,0-0.1-0.6c0.1-0.8,0.1-0.8-0.4-1.3l-0.5-0.5l0.3-0.2c0.3-0.2,0.3-0.3,0.1-0.7
				c-0.1-0.4-0.1-0.5,0.1-0.8c0.3-0.4,0.3-0.6,0-1.2c-0.3-0.5-0.3-0.5,0-2.2c0.1-1,0.3-2,0.3-2.2c0.1-0.4,0.9-1.9,1.8-3.3
				c0.2-0.3,0.2-0.4,0-0.3c-0.3,0.1-0.3-0.5,0-0.9l0.3-0.3l0.2,0.6l0.2-0.4c0.2-0.3,0.2-0.4,0-0.6c-0.1-0.1-0.2-0.3-0.2-0.4
				c0-0.1,0.3-0.6,0.6-1.1c0.8-1.3,1.5-2.6,1.8-3.6c0.2-0.7,0.3-1.2,0.3-2.5v-1.6l0.7-1.5c0.7-1.5,1.1-2.8,2.3-7.4
				c0.3-1.2,0.8-2.8,1-3.6c0.7-2.1,2-7,3-11c0.5-1.9,0.9-3.5,0.9-3.5c0,0,0.2,0.1,0.3,0.3c1.5,1.9,2.5,2.9,3,2.9
				c0.3,0,0.9-2.3,1.1-4.5c0.3-2.8,0.2-2.6,1.2-3.3c0.7-0.5,1.2-1.1,1.2-1.4c0,0-0.2-0.1-0.5-0.1h-0.5l0.4-0.6
				c0.7-0.9,0.7-1,1.2-0.5c0.2,0.2,0.4,0.4,0.4,0.3c0.1-0.2-0.4-1-0.6-0.9c-0.2,0.1,0.5-0.8,0.9-1.3c0.2-0.2,0.8-0.7,1.4-1.1
				c0.6-0.4,1.2-1,1.5-1.3c0.7-0.9,0.8-0.9,1.7-1.7c1-0.9,1.7-1.7,1.4-1.8c-0.3-0.1-0.2-0.4,0.1-0.5c0.3-0.1,0.5-0.6,0.6-1.7
				l0.1-0.9l-3.3-0.8l-1.5,0.2c-0.8,0.1-2.4,0.3-3.4,0.5l-1.9,0.3l-0.1,0.5c-0.1,0.4-0.2,0.5-0.9,0.9c-0.5,0.3-0.9,0.5-1,0.5
				c-0.2,0-0.2-0.4-0.4-1.8c-0.1-0.9-0.1-0.9-1-1.7c-0.7-0.7-1-0.9-1.6-1c-0.4-0.1-1-0.2-1.2-0.2c-0.3,0-1.1-0.2-1.8-0.5
				c-0.7-0.3-1.4-0.5-1.6-0.5c-0.1,0-0.5,0.2-0.7,0.4l-0.5,0.4l-0.6-0.6c-0.3-0.3-0.6-0.5-0.7-0.5
				C290.2,191.7,290,191.9,289.8,192.1L289.8,192.1z M290.2,192.8c-0.1,0.2-0.1,0.2-0.2,0.2c-0.1-0.1-0.1-0.2,0-0.4
				C290.2,192.3,290.3,192.4,290.2,192.8L290.2,192.8z M295.3,199.6c0.2,0.4,0.4,0.8,0.4,0.8c0,0.1-1.8,1.4-3,2.1l-0.5,0.3l0.7-1.3
				c0.8-1.5,1.5-2.5,1.8-2.5C294.8,198.9,295,199.2,295.3,199.6L295.3,199.6z M292.2,204.3c0.8,0.8,1.5,1.8,1.5,2
				c0,0.1-0.3,0.2-0.6,0.4c-0.3,0.1-0.6,0.3-0.6,0.3c0,0,0.4,0.5,0.8,0.9c0.4,0.5,1.2,1.5,1.8,2.2l1,1.4l-0.3,2.7
				c-0.3,2.5-0.3,2.7-0.6,2.9c-0.3,0.3-0.3,0.3-0.1,0.5c0.2,0.2,0.2,0.4-0.6,3.1c-0.4,1.6-1,3.7-1.2,4.7c-0.4,1.9-0.8,3-1.9,5.9
				c-0.4,1-1,2.9-1.5,4.2c-0.4,1.3-1,2.9-1.3,3.5c-0.3,0.6-0.6,1.3-0.6,1.6c0,0.6-0.1,0.8-0.4,0.7c-0.2-0.1-0.3,0.1-0.6,0.6
				c-0.2,0.4-0.3,0.8-0.3,1c0,0.2-0.2,0.4-0.4,0.6c-0.4,0.3-0.5,0.4-1,2.4c-0.3,1.2-0.6,2.1-0.6,2.1c0,0-0.1-0.1-0.2-0.3
				c0-0.2-0.2-0.4-0.3-0.6c-0.2-0.3-0.2-0.3-0.5,0.1c-0.2,0.3-0.3,0.3-0.4,0.2c-0.1-0.1-0.1-0.3,0.1-1c0.2-0.5,0.3-1.3,0.4-2.1
				l0.1-1.3l0.8-0.7c0.8-0.7,1.9-2.2,2.2-3c0.3-0.7,0.2-1.3-0.1-2.7c-0.3-1.5-0.7-2.5-1.2-3.3c-0.4-0.6-0.4-0.7-0.4-2.2
				c0-1.2,0.1-2.4,0.5-4.7c0.3-1.7,0.5-3.6,0.5-4.1c0-0.7,0.3-2,0.9-4.5c0.5-1.9,1.1-4.5,1.4-5.7c0.4-1.9,0.6-2.3,1-2.9
				c0.4-0.6,0.6-1.1,1.1-2.9c0.5-1.9,0.7-2.5,0.9-2.5C291.4,203.5,291.7,203.9,292.2,204.3L292.2,204.3z M275,231.3
				c0.3,0.1,0.7,0.3,0.7,0.4c0.1,0.1,0.2,1.2,0.2,2.5c0.1,1.2,0.1,2.7,0.2,3.3c0,0.6,0,3.2-0.1,5.9c-0.2,4-0.2,5.5-0.1,9.1
				c0.2,4.9,0.2,5-0.9,6.5c-1,1.4-2.5,2.9-5.7,5.7c-1.6,1.4-3.4,3.1-4,3.7l-1.1,1.1l-3.5,1c-2.6,0.8-3.6,1-3.9,0.9
				c-0.9-0.2-2.3-1.5-3.2-3.2l-0.4-0.8l0.1-2.4c0-1.6,0.2-3,0.4-4c0.3-1.7,1.1-4.4,1.7-5.7c0.4-0.9,0.4-0.9,0-1
				c-0.3-0.1-0.3-0.1,0.2-0.6c0.4-0.3,0.6-0.7,0.8-1.1c0.3-0.8,0.3-1.1,0-1.3c-0.3-0.2-0.2-0.2,0.8-1.5c0.9-1.1,1.2-1.5,1.6-2.5
				c0.3-0.7,0.5-1.3,0.5-1.3c0-0.1,1.1-1.6,1.4-1.8c0.1-0.1,0.2-0.4,0.2-0.6c0-0.3,0.2-0.7,0.7-1.4c0.4-0.5,0.8-0.9,0.9-0.9
				c0.3,0,0.8-0.7,1-1.3c0.1-0.5,0.5-1,1.5-2.1c2.4-2.7,3.3-3.5,3.9-3.8c0.4-0.2,0.7-0.4,0.9-0.9c0.6-1,1.2-1.6,1.9-2
				c0.6-0.3,0.8-0.3,1.6-0.3C274,231.1,274.6,231.2,275,231.3L275,231.3z M289.2,243.5c0,0.4-0.1,0.7-0.1,0.7
				c-0.1,0-0.1-0.3-0.1-0.7c0-0.4,0.1-0.7,0.1-0.7C289.1,242.8,289.2,243.1,289.2,243.5L289.2,243.5z M287,248
				c0,0.2-0.1,0.4-0.1,0.4s-0.1-0.2-0.1-0.4c0-0.2,0.1-0.4,0.1-0.4S287,247.7,287,248L287,248z M284.6,249.8c0,0.3-0.1,0.6-0.2,0.6
				c-0.1,0-0.2-0.1-0.2-0.6c0-0.5,0-0.7,0.2-0.6C284.5,249.2,284.6,249.5,284.6,249.8L284.6,249.8z M285.9,250.2
				c-0.1,0.5-0.3,0.6-0.4,0.4c-0.1-0.2,0.1-0.8,0.3-0.8C285.9,249.8,285.9,249.9,285.9,250.2L285.9,250.2z M283.7,257.7
				c-0.2,0.4-0.5,0.5-0.5,0.2c0-0.3,0.4-0.8,0.6-0.7C283.8,257.3,283.8,257.5,283.7,257.7L283.7,257.7z M273,265
				c-0.2,0.5-0.3,0.4-0.4-0.4c-0.1-0.4,0-0.5,0.2-0.5C273.1,264.1,273.2,264.4,273,265L273,265z M271.4,265.8c0,0.2-0.3,0.7-0.5,0.8
				c-0.2,0.1-0.3,0.1-0.3-0.3c0-0.3,0.1-0.5,0.2-0.5C271.2,265.8,271.4,265.7,271.4,265.8L271.4,265.8z M273.8,266.1
				c0,0.1,0.1,0.4,0.2,0.7c0.1,0.5,0.1,0.6-0.1,0.6c-0.2,0-0.4-0.5-0.4-1.1C273.5,266,273.7,265.9,273.8,266.1L273.8,266.1z
				 M280.1,271c0,0.2-0.2,0.4-0.4,0.3c-0.1-0.1,0.1-0.5,0.2-0.5C280.1,270.8,280.1,270.9,280.1,271L280.1,271L280.1,271z"/>
		</defs>
		<clipPath id="SVGID_2_">
			<use xlink:href="#SVGID_1_"  style="overflow:visible;"/>
		</clipPath>
		<rect x="245.8" y="191.1" class="st1" width="67.4" height="90.8"/>
	</g>
	<g>
		<defs>
			<path id="SVGID_3_" d="M368.1,195.1c-0.7,0.1-2.2,0.3-3.3,0.5l-2,0.3l-0.1,0.5c-0.1,0.5,0.1,0.4-3.9,2.5c-1.1,0.6-3.7,2.2-6,3.8
				c-0.3,0.2-0.6,0.5-0.7,0.7c-0.2,0.3-0.2,0.3,0.6,1.2c0.9,0.9,1.4,1.6,1.4,1.8c0,0.1-0.3,0.3-0.6,0.4c-0.3,0.1-0.6,0.3-0.6,0.3
				c0,0,0.2,0.3,0.6,0.6c0.5,0.6,1,1.2,3.7,4.8c2.3,3.1,3.6,4.6,4.2,4.6c0.3,0,0.9-2.4,1.1-4.9c0.1-1,0.2-2,0.3-2.1
				c0-0.1,0.5-0.5,1-0.9c0.5-0.4,0.9-0.7,0.9-0.8c0-0.1,0-0.2,0.1-0.3c0.1-0.2,0-0.2-0.3-0.2c-0.2,0-0.4-0.1-0.4-0.1
				c0-0.1,0.4-0.7,1.2-1.6c0.3-0.4,0.7-0.8,0.9-1c0.1-0.2,0.8-0.8,1.5-1.3c0.7-0.5,1.4-1.1,1.6-1.4c0.2-0.3,0.6-0.7,0.8-0.9
				c2.3-2.1,2.6-2.5,2.3-2.6c-0.3-0.1-0.2-0.4,0.2-0.5c0.4-0.2,0.4-0.4,0.5-1.7l0.1-0.9l-1.7-0.4c-0.9-0.2-1.7-0.4-1.8-0.4
				C369.5,194.9,368.9,195,368.1,195.1"/>
		</defs>
		<clipPath id="SVGID_4_">
			<use xlink:href="#SVGID_3_"  style="overflow:visible;"/>
		</clipPath>
		<rect x="351.4" y="194.3" class="st2" width="22.3" height="23.5"/>
	</g>
	<g>
		<defs>
			<path id="SVGID_5_" d="M365.4,206.2c-0.1,0.2,0.5,1,0.6,0.9c0.1,0,0-0.2-0.1-0.5C365.7,206.1,365.5,206,365.4,206.2"/>
		</defs>
		<clipPath id="SVGID_6_">
			<use xlink:href="#SVGID_5_"  style="overflow:visible;"/>
		</clipPath>
		<rect x="364.7" y="205.4" class="st3" width="2" height="2.3"/>
	</g>
	<g>
		<defs>
			<path id="SVGID_7_" d="M35.7,206.9c-0.9,0.5-1.6,0.7-2,0.4c-0.2-0.1-0.5-0.1-1,0.1c-0.6,0.2-0.8,0.2-1,0.1
				c-0.4-0.2-0.4-0.2-0.4,0.1c0,0.1-0.2,0.4-0.5,0.6c-0.4,0.3-0.6,0.4-1.2,0.4c-0.7,0-0.7,0-1.4,0.8c-0.5,0.6-0.8,0.8-1,0.7
				c-0.2,0-0.3,0-0.5,0.3c-0.2,0.6-0.8,1.1-1.3,1c-0.6-0.1-0.5-0.3,0.1-0.6c0.3-0.2,0.6-0.4,0.7-0.7c0.2-0.5,0.2-0.6-0.3-0.7
				c-0.3-0.1-0.5,0-0.6,0.1c-0.2,0.2-0.2,0.2,0,0.1c0.4-0.1,0.5-0.1,0.6,0c0,0.1-0.4,0.5-1,0.9c-1.4,1-1.9,1.4-2.3,1.4
				c-0.2,0-0.3,0.1-0.3,0.3c0,0.2-0.4,0.8-1.2,1.7c-1.3,1.5-1.8,1.9-2,1.6c-0.2-0.2-0.3-0.2-1.1,0.5c-0.6,0.6-0.8,0.6-1,0.5
				c-0.2-0.1-0.3-0.1-0.7,0.2c-0.7,0.7-1.5,1.7-1.2,1.6c0.2-0.1,0.3-0.1,0.5,0.1c0.2,0.2,0.2,0.3,0,0.6c-0.1,0.2-0.5,0.8-0.7,1.2
				c-0.5,1-1,1.8-1.2,1.7c-0.1,0-0.2-0.4-0.3-0.7c-0.1-0.3-0.2-0.7-0.2-0.8c0-0.1-0.2,0-0.3,0.4c-0.2,0.5-0.3,0.6-0.6,0.5
				c-0.4-0.1-0.4-0.1,0,1l0.3,0.9l-0.4,0.4c-0.2,0.2-0.4,0.5-0.4,0.7c0,0.2,0.3,0.6,0.6,0.9c0.5,0.5,0.7,0.9,1.1,2.1
				c0.3,0.8,0.6,1.5,0.7,1.5c0.1,0,0.3,0.3,0.5,0.6c0.3,0.5,0.5,0.7,1,1c0.4,0.2,0.9,0.5,1.1,0.7c0.4,0.4,0.4,0.4,0.7,0.2
				c0.4-0.2,0.4-0.2,1.7,0.4l1.3,0.6l0.9-0.2c1.2-0.2,1.8-0.2,2.6,0.1c0.6,0.2,0.7,0.2,0.8,0.1c0.1-0.2,0.3-0.2,1,0.1
				c0.9,0.4,2.2,0.3,5.3-0.5c1.5-0.4,1.5-0.4,1.4-0.1c-0.1,0.2,0.1,0.2,0.9,0.2c0.7,0,1.6-0.2,3.4-0.6l2.4-0.6l1.4,0.8l1-0.3
				c0.8-0.2,1.6-0.3,3.8-0.4c1.6-0.1,3.3-0.1,3.9-0.1h1v-0.4c0-0.2,0.1-0.6,0.2-0.7c0.1-0.2,0.2-0.3,0.1-0.4c-0.1,0-0.1-0.2-0.1-0.3
				c0.1-0.2,0-0.2-0.8-0.3c-0.9-0.1-1.1-0.2-0.9-0.4c0.1-0.1,0.2-0.2,0.2-0.2c0,0-0.7-0.1-1.6-0.2c-1,0-1.7-0.1-1.9-0.2
				c-0.3-0.2-0.3-0.1-0.7,0.1c-0.7,0.5-2.7,0.4-3.7-0.3c-0.3-0.2-0.3-0.2-0.1-0.4c0.2-0.2,0.5-0.1,0.6,0.3l0.1,0.3l0.5-0.5
				c0.4-0.3,0.6-0.4,0.8-0.4c0.1,0.1,0.4,0.2,0.6,0.2c0.4,0.1,0.4,0.1,0.4-0.2c-0.1-0.7-0.1-0.7-0.9-0.7c-0.4,0-1.4-0.1-2.1-0.2
				c-0.8-0.1-2.4-0.2-3.7-0.2c-2.3,0-2.4,0-2.4,0.3c0,0.1-0.1,0.4-0.3,0.6l-0.3,0.4l-0.3-0.3c-0.4-0.3-0.4-0.5-0.2-0.7
				c0.1,0,0.2,0,0.3,0.2c0.2,0.4,0.3,0.3,0.5-0.1c0.1-0.3,0.1-0.3,0-0.4c-0.3-0.1-3.3-0.2-7.4-0.3c-3.7-0.1-4.6-0.2-5.1-0.6
				c-0.4-0.3-0.1-0.7,0.5-0.8c0.5-0.1,0.6-0.2,0.6-0.3c0-0.1-0.1-0.4-0.1-0.7c-0.1-0.4,0-0.5,0.2-0.5c0.2,0,0.4,0.1,0.6,0.2
				c0.3,0.2,0.3,0.2,0.5-0.2c0.1-0.2,0.4-0.6,0.7-0.9c0.5-0.5,0.5-0.5,0.5-1.1c0-0.4,0-0.6,0.2-0.7c0.3-0.1,0.5,0.2,0.5,0.8l0,0.5
				l0.3-0.5c0.3-0.6,2.1-2.2,2.5-2.4c0.2-0.1,0.3,0,0.4,0.1c0.1,0.1,0.2,0.1,0.3-0.1c0.1-0.1,0.2-0.2,0.2-0.1c0,0.4,0.5,0.1,1.5-0.9
				l1-1l0.4,0.6c0.4,0.7,0.8,0.8,1.4,0.3c0.3-0.2,0.5-0.3,0.8-0.2c0.3,0.1,0.5,0,0.9-0.5c0.6-0.6,1-0.8,2.1-1c0.6-0.1,1-0.2,1.4-0.5
				c0.5-0.3,0.6-0.4,1.1-0.3c0.6,0.1,1.2-0.1,4.2-1c1.9-0.6,2.3-0.6,3.4,0c1.2,0.6,2.7,2.7,3.1,4c0.1,0.6,0.1,0.8,0,1.2
				c-0.2,0.7-0.2,0.7,0.1,0.6c0.1,0,0.4,0,0.6,0.1c0.2,0.1,0.4,0.2,0.5,0.1c0.1-0.1,0.3,0,0.4,0.2c0.2,0.2,0.2,0.2,1.2-0.2
				c0.5-0.3,1-0.5,1.1-0.5c0.5,0,4.7-3.6,4.7-4c0-0.2-1.5-2.9-2-3.5c-0.3-0.4-0.8-0.7-1.8-1.3c-3.2-1.7-5.5-2.6-6-2.2
				c-0.1,0.1-0.2,0.2-0.1,0.3c0,0.1,0,0.2,0,0.4c-0.1,0.3-0.1,0.3-0.3,0.1c-0.1-0.1-0.3-0.4-0.3-0.5c-0.1-0.3-0.1-0.3-0.6-0.2
				c-0.6,0.1-2.7-0.3-3.7-0.8c-0.6-0.3-0.9-0.3-2.7-0.4c-2.1-0.1-2.8-0.2-3.6-0.4c-0.4-0.1-0.5-0.1-0.7,0.1c-0.3,0.3-0.6,0.3-0.7,0
				C36.8,206.4,36.6,206.4,35.7,206.9L35.7,206.9z M13,224.1c0.1,0.2,0.1,0.3,0,0.3c-0.3,0-0.5-0.2-0.4-0.4
				C12.7,223.8,12.8,223.8,13,224.1L13,224.1z M39.7,226.6c0,0.1-0.1,0.2-0.2,0.4c-0.1,0.2-0.2,0.2-0.3,0.1c-0.1-0.1,0-0.2,0.1-0.3
				C39.4,226.5,39.7,226.4,39.7,226.6L39.7,226.6z M29,227.2c0,0.1-0.1,0.2-0.3,0.2c-0.2,0-0.3-0.1-0.3-0.2s0.1-0.2,0.3-0.2
				C28.9,227,29,227.1,29,227.2L29,227.2z M47.7,228.4c0.6,0.2,0.5,0.4-0.1,0.4c-0.5,0-0.5,0-0.7,0.7c0,0.2-0.2,0.4-0.3,0.4
				c-0.2,0-0.2-0.1-0.1-0.5c0.1-0.6,0-0.7-0.6-0.7c-0.2,0-0.3,0.2-0.5,0.6c-0.3,0.6-0.5,0.5-0.4-0.3c0-0.3,0.1-0.5,0.4-0.5
				C46,228.2,47.3,228.2,47.7,228.4L47.7,228.4z M49.6,229.5c0.1,0.1-0.1,0.3-0.3,0.3c-0.1,0-0.3-0.1-0.5-0.3l-0.3-0.3l0.5,0.1
				C49.3,229.4,49.6,229.5,49.6,229.5L49.6,229.5L49.6,229.5z"/>
		</defs>
		<clipPath id="SVGID_8_">
			<use xlink:href="#SVGID_7_"  style="overflow:visible;"/>
		</clipPath>
		<rect x="11" y="205.8" class="st4" width="49.1" height="27.7"/>
	</g>
	<g>
		<defs>
			<path id="SVGID_9_" d="M27.4,207.4c-0.1,0.2-0.1,0.3,0.1,0.2c0.1,0,0.4-0.1,0.7-0.1l0.5,0l-0.3-0.2
				C27.9,207.1,27.6,207.1,27.4,207.4"/>
		</defs>
		<clipPath id="SVGID_10_">
			<use xlink:href="#SVGID_9_"  style="overflow:visible;"/>
		</clipPath>
		<rect x="26.7" y="206.5" class="st5" width="2.7" height="1.8"/>
	</g>
	<g>
		<defs>
			<path id="SVGID_11_" d="M19.8,211.3c-0.1,0.2-0.1,0.4-0.1,0.4c0.1,0.1,0.6-0.5,0.5-0.7C20.1,210.9,19.9,211,19.8,211.3"/>
		</defs>
		<clipPath id="SVGID_12_">
			<use xlink:href="#SVGID_11_"  style="overflow:visible;"/>
		</clipPath>
		<rect x="19" y="210.3" class="st6" width="1.9" height="2.1"/>
	</g>
	<g>
		<defs>
			<path id="SVGID_13_" d="M174.3,218.8c-1.5,2-1.9,2.4-3.1,3.1c-0.6,0.4-2.4,1.5-4,2.5c-1.8,1.1-3.1,2-3.5,2.5
				c-0.4,0.4-1.4,1.1-2.2,1.7c-2.3,1.4-5.1,3.7-6.9,5.7c-1.9,2-2.6,2.9-3.1,3.6c-0.2,0.4-0.3,0.5-0.3,0.3c0-0.2-0.1-0.2-0.3,0.1
				c-0.2,0.2-0.6,0.9-1,1.5c-0.4,0.6-0.8,1.1-0.8,1c-0.1,0-0.2,0.2-0.3,0.5c-0.1,0.4-0.2,0.5-0.4,0.5c-0.2,0-0.4,0.2-0.6,0.4
				c-0.3,0.4-0.5,0.5-0.5,0.1c0-0.1-0.2-0.7-0.3-1.4c-0.2-0.8-0.3-1.5-0.4-2.3c0-1.9-0.3-2.4-2-4.1c-0.9-1-1.5-1.6-1.5-1.9
				c-0.1-0.3-0.2-0.4-0.9-0.6l-0.9-0.2l-0.7,0.8l-0.6-0.4c-0.3-0.2-0.7-0.4-0.9-0.4c-0.2,0-0.3-0.2-0.5-0.6
				c-0.2-0.5-0.4-0.8-1.2-1.3c-0.5-0.4-1.4-0.9-1.9-1.2c-0.5-0.3-1.2-0.6-1.4-0.8c-1.1-0.8-4.1-2.1-6.4-2.6c-0.9-0.2-1.4-0.3-2-0.2
				c-1.2,0.1-1.5,0.1-2-0.1c-0.3-0.2-0.6-0.2-1.4-0.1c-1.5,0.1-1.8,0.2-1.7,0.5c0,0.1,0,0.3-0.1,0.4c-0.2,0.2-3.8,2.6-3.9,2.6
				c-0.1,0-0.2-0.1-0.3-0.2c-0.1-0.2,0-0.3,0.6-1c0.4-0.4,0.7-0.9,0.7-0.9c0-0.2-2,1.6-2.3,2.1c-0.2,0.2-0.7,0.5-1.3,0.8
				c-0.8,0.3-1.2,0.6-1.6,1.1c-0.3,0.3-1.1,1.2-1.8,2c-1,1.1-1.3,1.5-1.3,1.8c0,0.7-0.2,1-0.8,1.4c-0.4,0.3-0.6,0.5-0.6,0.7
				c0,0.1-0.3,0.6-0.7,1c-0.9,1-2.1,3-3.3,5.6c-0.5,1.1-1,2-1.1,2c-0.1-0.1-0.4-0.5-0.7-1c-1.9-2.8-7.1-7-11-8.8
				c-3.5-1.7-9.3-3.7-12-4.2c-0.7-0.1-1.2-0.3-1.4-0.4c-0.2-0.2-0.7-0.3-2.3-0.5c-1.1-0.1-2.2-0.3-2.4-0.3c-0.5-0.2-2.2-0.2-1.9,0
				c0.1,0.1-0.4,0.1-1.7,0.1c-1.6,0-1.9,0-1.7,0.2c0.3,0.2,0.3,0.3-0.1,0.3c-0.3,0-0.3,0-0.2-0.3c0.2-0.7,0.2-1.2,0-1.2
				c-0.3,0-0.4,0.3-0.2,0.3c0.1,0,0,0.1-0.2,0.2c-0.5,0.3-0.5,0.3-0.3,0.4c0.1,0.1,0.2,0.1,0.1,0.2c0,0-0.8,0-1.8-0.1
				c-0.9-0.1-2.6-0.2-3.6-0.2c-1,0-2-0.1-2.1-0.1c-0.3-0.1-0.2-0.3,0.2-0.3c0.5,0,0.1-0.2-0.5-0.3c-0.6-0.1-0.6-0.1-0.5,0.2
				c0,0.2,0,0.3,0,0.3c-0.1,0-0.6,0-1.1,0c-0.8,0-1,0.1-1.1,0.3c-0.1,0.1-0.2,0.2-0.3,0.2c-0.2,0-0.2-0.5,0-0.8
				c0.2-0.3,0.2-0.3-0.4-0.4c-1-0.1-3.9-0.1-3.6,0.1c0.1,0.1,0.2,0.2,0.2,0.3c0,0.2-0.5,0.4-0.6,0.3c-0.2-0.2-0.4,0.2-0.4,0.7
				c0,0.3-0.1,0.5-0.1,0.5c-0.1,0-0.2,0.1-0.3,0.3c-0.1,0.2-0.1,0.3,0.4,0.3h0.6l0.1-0.6c0-0.3,0.1-0.6,0.2-0.6
				c0.1,0,0.3,0.5,0.3,0.9c0,0.3,0.1,0.3,0.2,0.2c0.1-0.1,0.6-0.2,1-0.2c0.7-0.1,0.8-0.1,1,0.1c0.3,0.2,0.4,0.2,0.4-0.2
				c0-0.1,0.1-0.3,0.2-0.3c0.3-0.1,0.5,0.2,0.4,0.5c-0.1,0.2,0.1,0.2,0.8,0.1c0.5-0.1,1.7-0.1,2.7-0.2c1.4-0.1,1.9-0.1,2,0.1
				c0.2,0.1,0.2,0.1,0.3-0.1c0.1-0.2,0.1-0.2,0.3,0c0.3,0.5,1.2,0.4,1.8-0.1l0.5-0.4v0.4c0,0.5,0.2,0.5,1,0.2
				c0.5-0.2,0.6-0.2,1.7,0.1c4.9,1.2,5.2,1.2,5.4,1c0.1-0.1,0.2-0.3,0.2-0.3c0-0.1,0.2,0.1,0.5,0.4c0.5,0.4,0.6,0.5,0.8,0.3
				c0.3-0.1,0.6,0,2.2,0.5c1.5,0.5,2,0.6,2.4,0.5c0.4-0.1,0.8,0,1.7,0.3c1,0.4,1.1,0.4,1.3,0.2c0.2-0.2,0.4-0.1,1.8,0.5
				c0.9,0.4,1.6,0.8,1.7,0.8c0.1,0,0.2-0.1,0.2-0.2c0.1-0.3,0.8-0.2,0.9,0.2c0.1,0.2,1,0.7,3.5,1.8l3.4,1.5l1.4,1.5
				c1.9,2,2.4,3,2.4,4.6c0,1.3-0.3,2.3-1.5,4.5c0,0.1,0.1,0.1,0.2,0.1c0.3,0,0.2,0.1-0.2,0.8c-0.3,0.4-0.9,1.3-1.4,2
				c-0.8,1.1-1,1.3-1.4,1.4c-0.5,0.2-0.9,0.6-0.9,1.2c0,0.1-1,1.2-2.2,2.5l-2.2,2.2l1.1,0.2l-0.9,0.9c-0.7,0.7-1,0.9-1.3,0.9
				c-0.3,0-0.4,0.1-0.6,0.5c-0.2,0.4-0.3,0.5-1.2,0.9c-0.6,0.2-1.2,0.6-1.6,0.9c-1.2,1.1-2.2,1.8-3.1,2.3c-0.7,0.3-1.5,1-3.2,2.4
				c-1.2,1.1-2.3,1.9-2.5,1.9c-0.5,0-1.2,0.4-1.7,1.2c-0.5,0.7-0.6,0.8-0.7,0.5c-0.1-0.1-0.3-0.3-0.4-0.3c-0.1,0-0.6,0.3-1.1,0.7
				c-1,0.7-1,0.7-1.2,0.5c0-0.1-0.8,0.4-1.8,1c-0.9,0.6-1.7,1.1-1.8,1c-0.2-0.2-0.4-0.1-1.2,0.5c-0.6,0.5-0.8,0.6-1.1,0.5
				c-0.3-0.1-0.5,0-0.8,0.2c-0.3,0.2-0.5,0.3-0.6,0.2c-0.2-0.1-0.4,0-0.9,0.5c-0.5,0.4-0.8,0.6-1,0.5c-0.2,0-0.4,0-0.5,0.1
				c-0.2,0.2-0.4,0.2-0.4,0c0-0.1,0-0.2-0.1-0.2c0,0-0.6,0.4-1.3,0.8c-1.2,0.8-1.2,0.8-1.5,0.6c-0.3-0.3-0.4-0.3-4.2,0.9
				c-2.9,0.9-3.1,0.9-4,0.9c-0.6-0.1-1.3,0-1.9,0.1c-0.6,0.1-1,0.1-1.2,0.1c-0.4-0.2-0.6-0.7-0.6-1.5l0-0.6l-0.2,0.4
				c-0.2,0.3-0.2,0.3-0.5,0.2c-0.2-0.1-0.2-0.2,0.4-1.6c0.4-0.8,0.8-1.7,0.9-2c0.2-0.4,0.3-0.5,0.5-0.4c0.2,0.1,0.3,0,0.3-0.6
				c0-0.4-0.1-0.9-0.2-1.1c-0.2-0.3-0.1-0.5,0.3-2c0.4-1.5,0.6-1.7,1.4-2.8c1.2-1.6,1.6-2.3,1.6-2.6c0-0.1,0.4-0.7,0.8-1.2
				c0.4-0.5,0.9-1.2,1-1.5c0.2-0.5,0.3-0.6,0.5-0.5c0.4,0.1,0.6-0.2,1.1-1.6c0.6-1.4,0.6-1.5,1.7-2.3c0.7-0.5,1.3-1.2,2.4-2.5
				c1-1.3,1.5-1.9,1.9-2.1c0.4-0.2,0.6-0.4,0.6-0.6c0-0.4,0.5-1.1,1.2-1.6c1.2-0.9,1.3-1,1.4-1.5c0.1-0.4,0.3-0.7,1.5-1.7
				c1.3-1.1,1.4-1.3,1.4-1.7c0-0.4-0.1-0.5-0.3-0.6l-0.3,0l0.3-0.2c0.4-0.2,0.8,0.1,0.8,0.5c0,0.2,0.1,0.2,0.7-0.3
				c0.4-0.3,1-0.8,1.4-1c0.5-0.3,1.1-0.7,1.9-1.5c1.2-1.3,2.6-2.3,5.3-3.7c1.3-0.8,3.8-2,5.1-2.6c0.3-0.1,0.3-0.1-0.1-0.2
				c-1.2,0-3.4,0.3-3.7,0.5c-0.3,0.2-0.4,0.2-0.6,0.1c-0.2-0.1-0.3-0.1-0.6,0.2c-0.3,0.3-0.5,0.3-1.1,0.3c-0.6,0-0.9,0-1.7,0.4
				c-1.5,0.7-2.8,1.7-3.7,2.7c-0.4,0.5-0.8,0.9-0.8,0.9c0,0-0.2-0.1-0.5-0.3c-0.5-0.4-0.6-0.3-0.6,0.2c0,0.4,0,0.4,0.5,0.4
				c0.4,0,0.5,0.1,0.5,0.3c0,0.2,0,0.4-0.1,0.5c-0.1,0.1-0.2,0.1-0.4,0c-0.2-0.2-0.2-0.2-0.2,0.1c0,0.2-0.1,0.4-0.1,0.5
				c-0.1,0.2-0.2,0.2-0.3-0.1c-0.1-0.1-0.2-0.3-0.2-0.4c0-0.1-0.3,0-0.6,0.3c-0.3,0.2-0.6,0.4-0.6,0.4c0,0-0.1-0.1-0.2-0.3
				c-0.1-0.3-0.1-0.3-0.4,0.1c-0.6,1-1.2,1.5-1.9,1.7c-0.7,0.1-1.7,0.8-2.5,1.8c-0.4,0.4-0.5,0.4-0.8,0.1c-0.2-0.2-0.2-0.2-0.4,0.4
				c-0.2,0.3-0.3,0.7-0.3,0.7c0,0.1-0.1,0.3-0.3,0.5c-0.3,0.3-0.3,0.4-0.6,0.2c-0.3-0.1-0.4,0-1.6,1.1c-1.1,1.1-1.3,1.2-1.4,1.1
				c-0.3-0.3-0.6,0-0.9,0.9c-0.2,0.5-0.3,0.9-0.3,1c0,0-0.2-0.1-0.3-0.2c-0.3-0.2-0.3-0.2-0.9,0.3c-0.3,0.3-0.6,0.5-0.7,0.4
				c0,0,0.1-0.4,0.3-0.7c0.2-0.4,0.3-0.7,0.3-0.7c-0.1,0-0.3,0.2-0.6,0.5c-0.5,0.5-0.5,0.5-0.4,1.3c0.1,0.8,0.1,0.8-0.3,0.8
				c-0.2,0-0.5,0.1-0.7,0.3l-0.4,0.3l0.2-1.2l-0.8,0.8c-0.4,0.4-0.8,0.9-0.9,1c-0.1,0.1-0.5,0.6-1,1.1l-0.9,0.9l-0.3-0.3
				c-0.4-0.4-0.5-0.3-0.6,1c0,0.5-0.1,1-0.2,1c0,0-0.2,0-0.3-0.2s-0.3-0.2-0.3-0.2c-0.1,0-1.2,1.6-1.4,2.2c-0.3,0.6-0.3,0.6-0.1,0.7
				c0.2,0.1,0.2,0.2,0.1,0.3c-0.1,0.2-0.2,0.2-0.4,0c-0.4-0.3-0.5-0.3-0.5,0c0,0.1-0.1,0.2-0.2,0.1c-0.1,0-0.2,0-0.2,0.1
				c0,0.1-0.1,0.2-0.1,0.2c-0.1,0-0.1,0.1-0.1,0.2c0,0.2-0.1,0.2-0.4,0.1c-0.4-0.1-0.4,0-1.8,1.9c-1,1.4-1.4,2.1-1.4,2.3
				c0,0.2-0.3,0.8-0.6,1.4c-0.6,0.9-0.7,1-1.1,1l-0.4,0L34,271c-0.3,0.9-0.6,1.7-0.7,1.9l-0.2,0.3l-0.4-0.6l-0.2,0.5
				c-0.1,0.3-0.4,0.7-0.6,0.9l-0.4,0.5l0.3,0.3c0.3,0.3,0.4,0.8,0.1,1.3c-0.2,0.4-0.4,0.3-0.4-0.3c0-0.9-0.1-0.9-0.7,0.1
				c-0.3,0.5-0.7,1.1-0.8,1.3c-0.2,0.3-0.2,0.3,0.7,1.2c0.5,0.5,0.9,0.8,0.9,0.7c0-0.1,0.1-0.2,0.2-0.4c0.2-0.2,0.2-0.2,0.4-0.1
				c0.2,0.1,0.2,0.1,0.3-0.1c0-0.1,0.2-0.4,0.3-0.5c0.2-0.2,0.3-0.2,0.6,0c0.3,0.2,0.3,0.3,0.1,0.8c-0.4,1.2-0.4,2,0.2,2.7L34,282
				l-0.1-0.4c-0.1-0.6,0.2-0.8,0.6-0.4c0.2,0.2,0.4,0.4,0.4,0.5c0,0.3,0.2,0.2,1-0.4c0.4-0.3,0.8-0.5,0.8-0.5c0,0-0.1,0.3-0.2,0.7
				c-0.3,0.5-0.3,0.6-0.1,0.8c0.1,0.1,0.4,0.2,0.6,0.3l0.4,0.1l-0.2-0.5c-0.1-0.3-0.2-0.5-0.2-0.6c0.1-0.1,1.2,1,1.5,1.5
				c0.2,0.3,0.3,0.4,0.5,0.2c0.2-0.2,0.4-0.2,0.4,0.1c0,0.2,0.2,0.5,0.6,0.8c0.3,0.3,1.1,0.9,1.8,1.5c0.6,0.6,1.2,1.1,1.3,1.2
				c0.1,0.1,0.3,0,0.6-0.2l0.5-0.4l0.6,0.4c0.3,0.2,0.8,0.4,1.2,0.5c0.5,0.2,0.6,0.2,1-0.1c0.2-0.1,0.5-0.2,0.6-0.2
				c0.1,0,0.7,0.2,1.3,0.3c1.3,0.2,2.8,0.1,3.7-0.3c0.5-0.2,0.6-0.2,0.8-0.1c0.2,0.1,0.5,0.1,1.6-0.3c0.7-0.2,1.4-0.4,1.5-0.4
				c0.1,0,0.4-0.2,0.7-0.5c0.3-0.3,0.6-0.5,0.8-0.5c0.2,0,0.4-0.1,0.5-0.2c0.1-0.1,0.3-0.2,0.5-0.2c0.5,0,1.2-0.4,1.8-0.9
				c0.4-0.3,0.4-0.4,0.2-0.5c-0.3-0.2-0.1-0.6,0.3-0.7c0.4-0.1,0.6,0.2,0.4,0.5c-0.2,0.4-0.2,0.4,1.2-0.6c0.5-0.4,1-0.7,1-0.7
				c0,0-0.1-0.2-0.3-0.4l-0.3-0.3l0.3-0.1c0.4-0.1,0.6,0.1,0.8,0.7c0.2,0.5,0.2,0.5,0.7,0.3c0.2-0.1,0.3-0.2,0.3-0.5
				c0-0.2-0.1-0.4-0.1-0.4c-0.2-0.2-0.1-0.3,0.2-0.3c0.2,0,0.4-0.1,0.4-0.3c0.1-0.3,0.2-0.3,0.6,0.1c0.3,0.4,0.3,0.4-0.4,1.2
				c-0.6,0.7-0.4,0.7,0.3,0.1c0.3-0.3,0.6-0.5,0.8-0.5c0.1,0,0.2-0.1,0.2-0.2c0-0.1,0.5-0.7,1-1.3c0.9-0.9,1-1,1.4-1
				c0.3,0.1,0.4,0,0.6-0.2c0.1-0.2,0.3-0.2,0.5-0.2c0.3,0.1,0.4,0,0.7-0.5c0.6-0.9,1.1-1.2,1.8-1.2c0.5,0,0.6,0,0.7-0.3
				c0.1-0.4,0.5-0.7,0.7-0.4c0.1,0.1,0.1,0.3,0.2,0.3c0.1,0.2,1.8-1.1,1.8-1.4c0-0.2,0-0.2,0.2,0c0.2,0.2,0.2,0.2,0.7-0.1
				c0.8-0.6,1-0.8,1.5-1.6c0.6-0.9,0.8-1,0.7-0.2c-0.1,0.5,0,0.5,0.1,0.5c0.1,0,0.3-0.1,0.4-0.1c0.1,0,0.2-0.1,0.2-0.4
				c0-0.4,0.4-0.9,0.6-0.8c0.1,0,0.1,0,0.1,0c0-0.1,0.1-0.1,0.3-0.1c0.1,0,0.3,0.1,0.3,0.2c0,0.3,0.6,0,2.4-1.6c0.9-0.8,2-1.7,2.4-2
				c0.4-0.3,0.8-0.6,0.8-0.7c0-0.4,0.5-1.1,1-1.3c0.5-0.2,0.5-0.2,0.6,0c0.1,0.1,0.3,0.2,0.5,0.2c0.3,0,0.4-0.1,0.4-0.3
				c0-0.3,0-0.3-0.4-0.2c-0.4,0.1-0.4,0.1,0.2-0.5c0.6-0.6,1-0.8,1.3-0.6c0.4,0.3,1.3-0.4,2.1-1.8c0.3-0.6,0.4-0.6,0.6-0.5
				c0.2,0.1,0.3,0.1,0.6-0.2c0.2-0.2,1.5-1.6,3-3c1.5-1.5,2.9-3,3.2-3.4c0.3-0.4,0.6-0.7,0.6-0.7c0.1,0,0.1,0.3,0.1,0.6
				c0,1.9,1.6,7.8,2.9,10.9c0.5,1.1,1.9,3.4,2.7,4.3c0.6,0.6,1.3,0.8,1.5,0.3c0.1-0.2,0.3-0.3,0.4-0.4c0.3,0,0.3,0,0.2,0.8l-0.1,0.8
				l0.7,0.7c1.3,1.4,3.7,2.7,5.8,3.3c0.5,0.1,1.1,0.4,1.6,0.7c0.4,0.3,1,0.6,1.4,0.8l0.7,0.3l0.8-0.3c1-0.4,1.4-0.3,1.8,0.3
				c0.2,0.3,0.3,0.4,1.4,0.6l1.2,0.2l1.1-0.4c1.1-0.4,1.3-0.4,2.1-0.1c0.5,0.2,0.5,0.2,2.6-0.7c1.2-0.5,2.4-1,2.7-1.1
				c0.6-0.2,0.7-0.3,0.8-1.1c0.1-0.5,0.1-0.5,0.4-0.5c0.2,0,0.3,0.1,0.3,0.2c0,0.1,0.1,0.2,0.3,0.1c0.4-0.1,3.5-0.9,3.5-1
				c0,0-0.1-0.3-0.2-0.6c-0.3-0.6-0.3-0.6-0.8-0.6c-0.3,0-0.8,0.1-1,0.2c-0.7,0.3-2.4,0.8-2.7,0.9c-0.1,0-0.3-0.1-0.3-0.3
				c-0.1-0.3-0.1-0.3-1.3,0c-0.5,0.1-0.5,0.1-0.2,0.3l0.3,0.1l-0.3,0.4c-0.2,0.2-0.3,0.4-0.3,0.4c-0.1,0.1-0.4-0.2-0.5-0.4
				c0-0.3-0.1-0.3-2.5-0.3c-5.7-0.1-6.8-0.4-10.4-2.5c-1.2-0.7-2.4-1.5-2.7-1.7c-0.7-0.8-2.2-2.9-2.8-4.1c-0.6-1.1-0.7-1.8-0.5-2
				c0.1,0,1.1,0.6,2.3,1.5c2.6,1.9,3.5,2.4,4.7,2.5c0.9,0.1,0.9,0,1.9-0.5c0.6-0.3,1.6-0.9,2.3-1.4c1.2-0.8,1.3-1,1.5-1.6
				c0.1-0.4,0.3-0.9,0.3-1.2c0-0.5,0.2-0.5,0.3,0c0,0.2,0.5-0.3,1.5-1.5c3.9-4.7,5.8-7.4,5.8-8.3c0-0.3,0.3-0.9,1.1-2.2
				c0.6-1,1.1-2,1.2-2.2c0.1-0.3,0.4-0.9,0.6-1.5c1-2,2.1-5.2,2.3-7.3c0.1-0.4,0.1-0.7,0.2-0.6c0,0,0.3,0.9,0.5,2
				c1.7,7.6,3.6,14.3,4.4,15.5c0.3,0.5,0.4,0.8,0.4,1c-0.1,0.6,1.7,4.9,3.3,7.7c0.5,0.8,1.1,2,1.5,2.6c0.6,1.1,1.1,1.6,2.3,2.5
				c0.4,0.3,1.2,1,1.7,1.5c0.9,0.8,1,0.9,1.8,1c0.5,0.1,1.2,0.3,1.7,0.6c0.9,0.5,0.9,0.5,2,0.4c0.9-0.1,1.2-0.1,1.4-0.4
				c0.4-0.5,0.5-1.5,0.5-3.5v-1.9l-0.8-1.9c-0.4-1-1.3-2.9-1.9-4.1c-1.7-3.4-3.6-8.5-4.2-11.1c-0.2-1.1-0.2-5.1,0-6.2
				c0.4-2,1.4-4.4,2.6-6.5c0.2-0.4,0.5-1.1,0.6-1.5c0.2-0.8,0.4-1,2.3-3.2c0.4-0.5,1-1.2,1.3-1.6c0.8-1,1.7-2,4.8-4.4
				c2.4-1.9,2.8-2.3,2.8-2.6c-0.1-0.5,0.9-1.3,1.6-1.3h0.3l-0.3,0.3c-0.1,0.2-0.4,0.7-0.5,1.3c-0.3,1.2-0.9,2.8-1.5,4.4
				c-0.5,1.2-1.3,4.1-1.6,5.6c-0.1,0.5-0.2,2.2-0.3,3.8c-0.1,1.6-0.1,3.1-0.1,3.4c0,0.3,0.1,0.6,0.3,0.9c0.2,0.3,0.3,0.5,0.1,0.7
				c-0.1,0.2-0.1,0.3,0.4,0.8c0.5,0.5,0.6,0.6,0.4,0.7c-0.2,0.2-0.1,0.5,0.4,1c0.5,0.4,0.9,0.4,1-0.2c0-0.3,0.1-0.4,0.3-0.3
				c0.3,0.1,0.4-0.1,0.5-1.5c0.1-0.9,0.1-1.2,0.3-1.4c0.1-0.1,0.2-0.4,0.2-0.6c0-0.7,0.4-2,0.8-2.5c0.2-0.3,0.4-0.7,0.4-0.9
				c0-0.7,0.1-0.8,0.6-0.7c0.5,0.1,0.7-0.1,0.8-0.7l0.1-0.4l-0.5,0.1c-0.4,0.1-0.5,0.1-0.4-0.1c0-0.1,0.1-0.3,0.1-0.4
				c0-0.1,0.1-0.2,0.5-0.2c0.6,0.1,1.1-0.5,1.6-1.7c0.2-0.5,0.5-1,0.7-1.2c0.6-0.5,2.1-2.2,2.3-2.7c0.3-0.6,0.2-0.8-0.2-0.4
				c-0.7,0.7-0.5,0.2,0.7-1.5c1.6-2.2,2.4-3.6,2.4-4.2c0-0.4,0.2-0.8,1.2-2.3c1.3-2,2-3.2,2-3.8c0-0.5-0.8-1.3-1.8-2
				c-0.7-0.5-0.9-0.5-1.4-0.5c-0.4,0.1-0.8,0-1.8-0.4c-0.7-0.3-1.3-0.5-1.4-0.5C175,218,174.7,218.4,174.3,218.8L174.3,218.8z
				 M166.6,227.3c0,0.1-0.1,0.2-0.3,0.3c-0.2,0-0.4,0.1-0.5,0.2c-0.1,0-0.2,0-0.2-0.1c0-0.1,0.3-0.3,1-0.5
				C166.6,227.2,166.6,227.2,166.6,227.3L166.6,227.3z M53.2,229.3c0.2,0.2,0.2,0.2-0.2,0.2c-0.5,0-0.5-0.1-0.2-0.6
				c0.1-0.3,0.2-0.3,0.2-0.1C52.9,229,53,229.2,53.2,229.3L53.2,229.3z M69.3,229.8c0.2,0.2,0,0.3-0.4,0.2c-0.5-0.2-0.6-0.5-0.1-0.4
				C69,229.6,69.2,229.7,69.3,229.8L69.3,229.8z M70.4,230c0,0.1,0,0.2-0.1,0.2c-0.3,0-0.6-0.1-0.6-0.3
				C69.6,229.6,70.3,229.8,70.4,230L70.4,230z M73,230.2l0.4,0.4H73c-0.4,0-0.4,0-0.4-0.4c0-0.2,0-0.4,0-0.4
				C72.6,229.8,72.8,230,73,230.2L73,230.2z M73.6,230c0,0.1-0.1,0.2-0.1,0.1c-0.1,0-0.1-0.1-0.1-0.2s0.1-0.1,0.1-0.1
				C73.6,229.8,73.6,229.9,73.6,230L73.6,230z M71.6,230.1c0,0.1-0.1,0.2-0.4,0.2c-0.5-0.1-0.6-0.4-0.1-0.4
				C71.5,229.9,71.6,230,71.6,230.1L71.6,230.1z M77.7,230.6c0.1,0.2-0.2,0.3-0.3,0.1c-0.1-0.2-0.1-0.2,0-0.2
				C77.5,230.5,77.6,230.5,77.7,230.6L77.7,230.6z M131.7,231.8c0.6,0.5,1.1,1,1.1,1c0,0,0,0.3-0.2,0.5c-0.2,0.4-0.2,0.4-0.2,0.1
				c0-0.2-0.1-0.5-0.3-0.6c-0.2-0.2-0.3-0.2-0.4,0c-0.2,0.3-0.1,0.6,0.3,1.2c0.3,0.3,0.5,0.7,0.5,0.8c0,0.1-0.7,1.8-1.5,3.9
				l-1.5,3.7l0.2,0.6c0.1,0.3,0.2,0.6,0.2,0.7c0,0-0.2,0-0.4-0.1c-0.4-0.3-0.5-0.2-0.5,0.5c0,0.5-0.2,0.7-0.5,0.4
				c-0.1-0.1-0.2,0.1-0.4,0.6c-0.3,0.9-5,7.8-7.1,10.5c-2.2,2.7-3.1,3.7-4.2,4.2c-0.5,0.3-1.5,0.9-2.2,1.4c-0.7,0.5-1.6,1.1-2,1.3
				c-0.4,0.2-0.9,0.6-1.1,0.8c-0.2,0.2-0.3,0.3-0.3,0.3c0-0.1-0.2-0.9-0.3-1.9c-0.4-2.1-0.4-2.6,0-5.3c0.3-1.9,0.3-2.7,0.1-3.2
				c-0.1-0.2-0.1-0.2,0.3-0.2l0.4,0.1l-0.1-2.9l0.5-0.5c0.4-0.3,0.5-0.5,0.3-0.5c-0.1,0-0.3-0.1-0.3-0.1c-0.1-0.1,0.7-2.2,1.1-3.3
				c0.2-0.4,0.5-0.9,0.7-1.2c0.2-0.3,0.4-0.6,0.3-0.7c0-0.1,0.1-0.3,0.3-0.6c0.2-0.2,0.9-1.2,1.6-2.1c1.8-2.7,3.7-5.2,4.9-6.4l1-1
				l0.9,0.1l0.9,0.1l0.4-0.5c0.3-0.4,0.7-0.7,1.8-1.1c1.8-0.8,3.6-1.4,4.1-1.4C130.6,230.9,130.8,231,131.7,231.8L131.7,231.8z
				 M68.6,241c0,0.2-0.6,0.7-0.8,0.6c-0.1-0.1,0-0.2,0.2-0.4C68.4,240.9,68.6,240.9,68.6,241L68.6,241z M62.9,246.5
				c0,0.3-0.1,0.4-0.2,0.4c-0.1,0-0.2-0.1-0.2-0.4c0-0.3,0.1-0.4,0.2-0.4C62.8,246.1,62.9,246.2,62.9,246.5L62.9,246.5z M62.2,246.6
				c0,0.1-0.1,0.2-0.3,0.4c-0.2,0.1-0.3,0.4-0.3,0.7c0,0.3-0.1,0.4-0.2,0.4c-0.1,0-0.2-0.1-0.2-0.4c0-0.2,0.1-0.4,0.1-0.4
				c0.1,0,0.1-0.1,0.1-0.3c0-0.2,0-0.4,0.1-0.4C61.8,246.5,62.2,246.5,62.2,246.6L62.2,246.6z M60.3,248.1c0,0.1-0.1,0.4-0.2,0.5
				c-0.1,0.4-0.1,0.4-0.6,0.1l-0.4-0.2l0.5-0.3C60.3,247.8,60.4,247.8,60.3,248.1L60.3,248.1z M53.3,254.5c0.3,0.2,0.3,0.3,0.1,0.3
				c-0.3,0.1-0.6-0.1-0.6-0.4C52.8,254.1,52.9,254.2,53.3,254.5L53.3,254.5z M90.7,256.5c0,0.2,0,0.3-0.2,0.3c-0.2,0-0.2,0-0.2-0.2
				c0-0.1,0.1-0.3,0.1-0.4C90.5,255.9,90.7,256.2,90.7,256.5L90.7,256.5z M106.2,268.6c0,0.2-0.4,0.6-0.5,0.5
				c-0.1-0.1,0.2-0.6,0.3-0.6C106.2,268.5,106.2,268.6,106.2,268.6L106.2,268.6z M71.6,272.1c-0.1,0.2-0.1,0.2-0.2,0.2
				c-0.1,0-0.1-0.2,0-0.3C71.5,271.6,71.7,271.7,71.6,272.1L71.6,272.1z M76,273c0,0.3-0.2,0.6-0.3,0.5c-0.1-0.1,0-0.8,0.2-0.8
				C75.9,272.8,76,272.9,76,273L76,273z M43.6,274.8c0,0.4-0.3,0.4-0.4-0.1c0-0.2,0-0.3,0.2-0.3C43.6,274.5,43.6,274.6,43.6,274.8
				L43.6,274.8z M65.2,274.9c0,0.1,0,0.2-0.1,0.1c-0.1,0-0.2-0.1-0.2-0.2c0-0.1,0-0.2,0.1-0.1C65.1,274.7,65.2,274.8,65.2,274.9
				L65.2,274.9z M120.9,277.2c0.2,0.1,0.2,0.2,0.1,0.3c-0.2,0.1-0.7-0.1-0.7-0.3C120.3,277,120.6,277,120.9,277.2L120.9,277.2z
				 M31.7,277.7c0,0.2-0.4,0.5-0.5,0.4c-0.1-0.1,0.2-0.5,0.4-0.5C31.7,277.6,31.7,277.6,31.7,277.7L31.7,277.7z M55.1,278.8
				c-0.3,0.2-0.4,0.1-0.2-0.1c0.1-0.1,0.2-0.2,0.3-0.1C55.3,278.6,55.3,278.7,55.1,278.8L55.1,278.8z M65.1,281.5
				c0,0.1-0.1,0.1-0.2,0.1s-0.2-0.1-0.2-0.1c0-0.1,0.1-0.1,0.2-0.1S65.1,281.5,65.1,281.5L65.1,281.5z M52.9,284
				c0,0-0.3,0.1-0.7,0.1c-0.6,0.1-0.6,0.1-0.5-0.2c0.1-0.2,0.2-0.2,0.7-0.1C52.7,283.9,52.9,284,52.9,284L52.9,284z M57.9,284
				c0,0.1-0.1,0.2-0.1,0.3c0,0-0.1,0-0.1,0c-0.2-0.1,0-0.5,0.2-0.5C57.9,283.8,58,283.9,57.9,284L57.9,284z M46.2,284.4
				c-0.1,0.3-0.4,0.5-0.4,0.2c0-0.3,0.3-0.7,0.4-0.6C46.2,284,46.2,284.2,46.2,284.4L46.2,284.4z M43.8,284.6c0,0.1-0.1,0.1-0.2,0.1
				c-0.2,0-0.3-0.2-0.1-0.3C43.6,284.3,43.8,284.4,43.8,284.6L43.8,284.6z M42.9,285.1c1.3,0.5,1.9,1.1,0.9,0.9
				c-0.4-0.1-0.5,0-0.7,0.2c-0.1,0.2-0.2,0.2-0.7-0.4C41.5,284.8,41.6,284.7,42.9,285.1L42.9,285.1z M48.1,285.7
				c0,0.2-0.1,0.3-0.2,0.3c-0.1,0-0.2-0.2-0.2-0.3c0-0.2,0-0.3,0.2-0.3C48.1,285.4,48.1,285.5,48.1,285.7L48.1,285.7z M54.3,286
				c-0.3,0.2-0.6,0.2-0.3,0c0.1-0.1,0.3-0.2,0.4-0.2C54.5,285.8,54.5,285.8,54.3,286L54.3,286L54.3,286z"/>
		</defs>
		<clipPath id="SVGID_14_">
			<use xlink:href="#SVGID_13_"  style="overflow:visible;"/>
		</clipPath>
		<rect x="29.3" y="217.3" class="st7" width="152.7" height="70.8"/>
	</g>
	<g>
		<defs>
			<path id="SVGID_15_" d="M11.4,219.5c0,0.3,0.1,0.5,0.2,0.5c0.1,0,0.2-0.1,0.2-0.5s-0.1-0.5-0.2-0.5
				C11.5,219.1,11.4,219.2,11.4,219.5"/>
		</defs>
		<clipPath id="SVGID_16_">
			<use xlink:href="#SVGID_15_"  style="overflow:visible;"/>
		</clipPath>
		<rect x="10.7" y="218.4" class="st8" width="1.7" height="2.3"/>
	</g>
	<g>
		<defs>
			<path id="SVGID_17_" d="M13.2,219.7c-0.1,0.3,0.1,0.5,0.3,0.2c0.2-0.3,0.2-0.4,0-0.4C13.4,219.5,13.3,219.5,13.2,219.7"/>
		</defs>
		<clipPath id="SVGID_18_">
			<use xlink:href="#SVGID_17_"  style="overflow:visible;"/>
		</clipPath>
		<rect x="12.5" y="218.8" class="st9" width="1.8" height="1.9"/>
	</g>
	<g>
		<defs>
			<path id="SVGID_19_" d="M192.9,224.8c-0.1,0-0.4,0.1-0.7,0.1c-0.5,0.1-0.6,0.1-0.6,0.4c0,0.3-0.2,0.5-1.6,1.4
				c-2.2,1.5-2.4,1.6-2.6,1.4c-0.2-0.2-0.1-0.3,0.4-0.9c0.3-0.4,0.7-0.8,0.8-1l0.2-0.3l-0.4,0.3c-0.2,0.2-0.9,0.8-1.4,1.4
				c-0.8,0.8-1.3,1.1-2.1,1.5c-0.8,0.4-1.1,0.6-1.7,1.2c-0.4,0.4-1.1,1.3-1.7,1.9c-1,1-1.1,1.2-1.2,1.8c-0.1,0.8-0.1,0.9-0.8,1.3
				c-0.4,0.2-0.6,0.4-0.6,0.7c0,0.2-0.3,0.6-0.6,1c-0.9,1.1-2,2.9-3.5,6c-2.2,4.6-2.5,5.7-2.5,10.5c0,3.6,0.2,4.9,0.8,7.6
				c1.4,5.3,2.2,7.3,4,9.8c1,1.4,1.1,1.5,1.6,1.7c0.4,0.1,0.6,0.1,0.6,0c0.1-0.2,0.4-0.5,0.6-0.5c0.3,0,0.3,0.4,0.2,1l-0.1,0.5
				l0.9,0.9c1.5,1.5,3.3,2.5,5.6,3.2c0.6,0.2,1.3,0.5,1.7,0.8c0.4,0.3,1,0.6,1.4,0.7c0.7,0.2,0.7,0.2,1.3-0.1
				c0.9-0.4,1.3-0.4,1.7,0.2c0.3,0.4,0.5,0.5,1.5,0.6c1.1,0.2,1.2,0.2,2.2-0.2c1.2-0.4,1.4-0.4,2-0.1c0.6,0.3,0.6,0.3,2.8-0.7
				c0.7-0.3,1.8-0.7,2.3-0.9c1-0.3,1-0.4,1.1-0.9c0.1-0.3,0.1-0.6,0.2-0.7c0.1-0.2,0.7-0.2,0.7,0.1c0,0.1,0.1,0.2,0.2,0.1
				c0.1,0,1-0.3,1.9-0.5c0.9-0.2,1.7-0.4,1.7-0.5c0,0-0.1-0.3-0.2-0.7l-0.3-0.6l-0.7,0.1c-0.4,0-0.9,0.2-1.1,0.3
				c-0.5,0.3-2.1,0.8-2.4,0.8c-0.1,0-0.3-0.1-0.3-0.3c-0.1-0.3-0.2-0.3-1.3,0c-0.4,0.1-0.4,0.1-0.2,0.3c0.2,0.2,0.2,0.2-0.1,0.5
				c-0.3,0.3-0.4,0.3-0.6,0.2c-0.1-0.1-0.2-0.3-0.2-0.4c0-0.2-0.1-0.3-0.7-0.2c-0.9,0.1-6.1-0.2-7.1-0.4c-1.7-0.3-2.8-0.8-5.2-2.2
				c-2.6-1.5-2.6-1.6-4.4-4.1c-1.1-1.6-1.8-3.4-1.4-3.7c0,0,1,0.6,2.2,1.5c1.2,0.9,2.3,1.7,2.5,1.8c0.7,0.4,1.9,0.8,2.6,0.8
				c0.6,0,0.9-0.1,1.8-0.6c1.5-0.9,3.3-2.2,3.5-2.6c0.1-0.2,0.3-0.8,0.4-1.2c0.1-0.5,0.2-0.7,0.2-0.5c0,0.2,0,0.3,0.1,0.4
				c0.1,0.1,4.9-5.8,6.1-7.6c0.7-1.1,1.3-2.2,1.2-2.5c0-0.1,0.4-0.9,1-1.9c0.6-1,1.2-2,1.3-2.3c0.1-0.3,0.4-1.1,0.8-1.7
				c1.6-3.1,2.6-7.9,2.8-12.9c0.1-1.8,0.1-2.4,0.3-2.7c0.3-0.5,0.2-1.4-0.2-2.1c-0.3-0.5-2-1.8-3-2.3c-0.4-0.2-1-0.5-1.3-0.8
				c-0.8-0.6-2.4-1.4-4.1-1.9c-2.6-0.9-4.3-1.2-5.1-0.9c-0.2,0.1-0.5,0.1-1-0.1C194.3,224.8,193.3,224.7,192.9,224.8L192.9,224.8z
				 M202.7,231.9c1,1,1.2,1.2,0.9,1.7c-0.1,0.2-0.1,0.2-0.1-0.1c0-0.3-0.4-0.7-0.6-0.7c-0.1,0-0.2,0.2-0.2,0.5c0,0.3,0.1,0.6,0.5,1
				c0.3,0.4,0.4,0.6,0.4,0.8c0,0.1-0.7,1.8-1.5,3.7c-0.8,1.9-1.4,3.6-1.4,3.8c0,0.2,0.1,0.6,0.2,0.8c0.2,0.3,0.2,0.4,0,0.4
				c-0.1,0-0.3-0.1-0.4-0.2c-0.3-0.3-0.4-0.2-0.5,0.4c-0.1,0.5-0.1,0.6-0.4,0.5c-0.3-0.1-0.3,0-0.6,0.7c-0.2,0.6-1.1,2-3.1,4.8
				c-2.9,4.2-4,5.6-6,7.9c-1,1.2-1.3,1.4-2.3,1.9c-0.6,0.3-1.6,1-2.4,1.5c-0.7,0.5-1.6,1.1-1.9,1.3c-0.3,0.2-0.7,0.4-0.9,0.6
				c-0.3,0.4-0.4,0.4-0.4,0.1c0-0.2-0.2-1.1-0.4-2.1l-0.4-1.9l0.3-2.1c0.3-2.3,0.4-3.5,0.1-4c-0.1-0.3-0.1-0.3,0.3-0.2l0.4,0.1v-1.4
				c0-1.5,0-1.5,0.7-2c0.3-0.2,0.3-0.2,0-0.4c-0.2-0.2-0.2-0.2,0.1-1.1c0.5-1.4,1.2-3,1.5-3.5c0.2-0.3,0.3-0.5,0.3-0.7
				c0-0.2,0.1-0.4,0.3-0.6c0.2-0.2,1-1.3,1.8-2.4c2-2.9,3.8-5.3,4.9-6.3l0.8-0.8l1.8,0.2l0.6-0.6c0.6-0.6,2.2-1.4,4.4-2.1
				C201.4,230.7,201.5,230.7,202.7,231.9L202.7,231.9z M177.2,268.9c-0.1,0.2-0.2,0.3-0.3,0.3c-0.1,0-0.1-0.1,0-0.3
				c0.1-0.2,0.2-0.3,0.3-0.3C177.3,268.5,177.3,268.6,177.2,268.9L177.2,268.9z M191.9,277.1c0.2,0.1,0.3,0.5,0.1,0.5
				c-0.3,0-0.5-0.2-0.5-0.3C191.4,277,191.5,277,191.9,277.1L191.9,277.1L191.9,277.1z"/>
		</defs>
		<clipPath id="SVGID_20_">
			<use xlink:href="#SVGID_19_"  style="overflow:visible;"/>
		</clipPath>
		<rect x="171.6" y="224.1" class="st10" width="38.9" height="56.6"/>
	</g>
	<g>
		<defs>
			<path id="SVGID_21_" d="M233.5,225.8c-1.2,1.1-1.1,0.9-1.3,3.4c-0.1,0.9-0.1,1-1.3,2.9c-1.4,2.1-3.8,5.4-5,6.8
				c-0.6,0.7-0.8,1-1,1.6c-0.2,0.8-0.3,1-1.1,1.5c-0.6,0.4-2.9,3.1-4,4.6c-0.3,0.4-0.6,0.7-0.7,0.7c-0.2,0-0.2-2.1,0-3
				c0.3-1,0.4-8.9,0.2-9.4c-0.1-0.2-0.1-0.6,0.1-1.6c0.2-1.1,0.3-1.3,0.6-1.7c0.4-0.4,0.4-0.5,0.2-0.9c-0.1-0.3-0.3-0.9-0.6-1.3
				l-0.4-0.8h-0.9c-0.5,0-1.2,0-1.6-0.1c-0.6-0.1-0.7-0.1-0.7,0.2c-0.1,0.2-0.2,0.3-0.7,0.4c-0.4,0.1-0.8,0.1-1.1,0.1
				c-1.2-0.1-1.6,0-2.4,0.4l-0.9,0.4l0.1,4.9c0,3.1,0.1,5.2,0.2,5.7c0.1,0.6,0.1,0.9,0,1.4c-0.4,1.1-0.5,5.4-0.5,15.6
				c0,9.8,0,9.8-0.3,10.5c-0.4,0.9-0.3,1.9,0.1,2.8c0.2,0.5,0.3,0.7,0.2,1c-0.1,0.2-0.1,0.7-0.1,1.1v0.7l0.8,0.6
				c0.4,0.3,1.1,0.8,1.4,1.1c0.4,0.3,0.9,0.6,1.5,0.8c1.1,0.3,1.6,0.6,1.8,0.9c0.2,0.2,0.3,0.3,0.5,0.1c0.3-0.1,0.4-0.2,0.4-0.5
				c0-0.5,0.4-0.8,1.2-0.8c0.4,0,0.6,0.1,0.7,0.2c0.1,0.2,0.2,0.2,0.5,0.1c0.2-0.1,0.4-0.3,0.6-0.5c0.2-0.3,0.2-0.5,0.1-1.6
				c-0.1-0.7-0.2-1.4-0.2-1.7c-0.1-0.7,1.5-8.1,1.8-8.6c0.2-0.3,0.4-1,0.7-3.1c0.3-2.3,0.5-3,1-4.5c0.3-1,0.6-2,0.7-2.3
				c0-0.5,1.1-3.3,1.8-4.9c0.9-2,2.6-4.5,5-7.4c0.6-0.7,1.5-1.9,2-2.7c0.9-1.4,1.1-1.6,1.5-2l0.3-0.2l0.3,0.6
				c0.3,0.6,0.3,0.9,0.3,3.1l0,2.5l0.8,0.7v1.9c0,1.6,0,2-0.2,2.2c-0.2,0.2-0.2,0.4,0.1,1.7c0.4,2.1,0.5,4.7,0.2,6.2
				c-0.3,1.6-0.3,1.8,0.2,2.3c0.3,0.4,0.4,0.6,0.5,2.1c0.1,0.9,0.2,2.3,0.2,3.2c0,1.1,0.1,1.6,0.2,1.7c0.1,0.1,0.2,0.7,0.1,2.2l0,2
				l0.5-0.1c0.3,0,0.5-0.1,0.5,0c0,0-0.1,0.3-0.2,0.7c-0.3,1-0.2,1.7,1.1,5.2c0.4,1.1,0.7,1.9,1,2.1c0.3,0.3,0.4,0.6,0.5,1.2
				c0.1,0.7,0.3,0.9,0.9,1.6c0.4,0.5,1,1,1.3,1.2c0.5,0.4,0.7,0.4,1.9,0.4h1.3l0.2-0.7c0.5-1.6,0.5-2.1,0.4-3.6
				c-0.2-1.9-0.5-4.8-1-10.1c-0.4-4.7-0.5-7.7-0.2-9.4c0.2-0.9,0.2-1-0.1-1.3c-0.3-0.4-0.3-0.6,0-1.6c0.3-0.9,0.3-1.4-0.1-3.6
				c-0.3-2-0.3-4.5,0-5c0.2-0.4,0.2-0.5,0-0.7c-0.2-0.3-0.2-0.4,0.1-1c0.3-0.7,0.3-1,0.3-4.3c0-2.2,0-3.7,0.1-3.8
				c0.1-0.1,0.1-0.5-0.2-3.4c-0.1-1-0.3-2.7-0.3-3.8c-0.1-1.8-0.2-2-0.5-2.3c-0.2-0.2-0.4-0.5-0.5-0.7c-0.2-0.4-1.5-1-2-1
				c-0.2,0-0.5,0.1-0.7,0.2c-0.3,0.2-0.6,0.2-3-0.2c-1.4-0.2-2.8-0.4-3.1-0.4C234.6,224.8,234.5,224.9,233.5,225.8L233.5,225.8z
				 M244.3,272.2c0,0.2-0.1,0.3-0.1,0.3c-0.1,0-0.2-0.4,0-0.6C244.3,271.8,244.3,271.8,244.3,272.2L244.3,272.2z M242.9,274.6
				c0,0.2-0.1,0.3-0.2,0.3c-0.2,0-0.3-0.5-0.1-0.7C242.7,274,242.9,274.2,242.9,274.6L242.9,274.6L242.9,274.6z"/>
		</defs>
		<clipPath id="SVGID_22_">
			<use xlink:href="#SVGID_21_"  style="overflow:visible;"/>
		</clipPath>
		<rect x="209.3" y="224.2" class="st11" width="37.6" height="58.1"/>
	</g>
	<g>
		<defs>
			<path id="SVGID_23_" d="M119.5,225c-0.2,0.1-0.3,0.2-0.3,0.3c0,0.2,0.1,0.2,0.3,0.1c0.4-0.1,0.6-0.3,0.4-0.4
				C119.9,225,119.7,225,119.5,225"/>
		</defs>
		<clipPath id="SVGID_24_">
			<use xlink:href="#SVGID_23_"  style="overflow:visible;"/>
		</clipPath>
		<rect x="118.6" y="224.3" class="st12" width="2.1" height="1.9"/>
	</g>
	<g>
		<defs>
			<path id="SVGID_25_" d="M190.6,225c-0.2,0.1-0.3,0.5-0.2,0.5c0.3,0,0.7-0.3,0.7-0.5C191,224.9,190.9,224.9,190.6,225"/>
		</defs>
		<clipPath id="SVGID_26_">
			<use xlink:href="#SVGID_25_"  style="overflow:visible;"/>
		</clipPath>
		<rect x="189.7" y="224.2" class="st13" width="2.1" height="2"/>
	</g>
	<g>
		<defs>
			<path id="SVGID_27_" d="M44.4,226.2c-0.1,0.5-0.1,0.6,0.3,0.6c0.2,0,0.6,0,0.7,0c0.2,0,0.5,0,0.6-0.1c0.2-0.1,0.4,0,0.6,0.3
				c0.3,0.3,0.4,0.3,0.6,0.2c0.4-0.3,0.5-0.3,0.9,0c0.3,0.2,0.4,0.3,0.9,0.1c0.3-0.1,0.6-0.2,0.6-0.3c0-0.1,0-0.3,0.1-0.4
				c0.1-0.2,0-0.2-0.5-0.2c-0.5,0-0.6,0.1-0.6,0.3c0,0.1-0.1,0.3-0.1,0.3c0,0-0.3-0.2-0.7-0.4c-0.6-0.3-0.8-0.4-2.1-0.4
				C45.1,226.2,44.4,226.2,44.4,226.2"/>
		</defs>
		<clipPath id="SVGID_28_">
			<use xlink:href="#SVGID_27_"  style="overflow:visible;"/>
		</clipPath>
		<rect x="43.7" y="225.5" class="st14" width="6.8" height="2.6"/>
	</g>
	<g>
		<defs>
			<path id="SVGID_29_" d="M50.2,226.6c0,0.1-0.1,0.3-0.1,0.5c-0.1,0.4-0.1,0.4,0.5,0.4c0.5,0,0.6,0,0.5-0.2c0-0.1-0.1-0.3-0.1-0.5
				c0-0.2-0.1-0.3-0.4-0.3C50.5,226.5,50.3,226.5,50.2,226.6"/>
		</defs>
		<clipPath id="SVGID_30_">
			<use xlink:href="#SVGID_29_"  style="overflow:visible;"/>
		</clipPath>
		<rect x="49.4" y="225.8" class="st15" width="2.4" height="2.3"/>
	</g>
	<g>
		<defs>
			<path id="SVGID_31_" d="M295.1,227.2c-0.1,0.3-0.2,0.7-0.3,0.9c-0.1,0.3-0.1,0.3,0.1,0.3c0.1,0,0.3-0.3,0.5-0.8
				c0.1-0.4,0.3-0.8,0.3-0.8c0,0-0.1,0-0.2,0C295.4,226.6,295.2,226.8,295.1,227.2"/>
		</defs>
		<clipPath id="SVGID_32_">
			<use xlink:href="#SVGID_31_"  style="overflow:visible;"/>
		</clipPath>
		<rect x="294.1" y="226" class="st16" width="2.2" height="3"/>
	</g>
	<g>
		<defs>
			<path id="SVGID_33_" d="M167.2,227c-0.2,0.1-0.2,0.3-0.1,0.3c0.1,0,0.2-0.1,0.4-0.2c0.2-0.1,0.2-0.2,0.1-0.2
				C167.4,226.9,167.3,226.9,167.2,227"/>
		</defs>
		<clipPath id="SVGID_34_">
			<use xlink:href="#SVGID_33_"  style="overflow:visible;"/>
		</clipPath>
		<rect x="166.3" y="226.2" class="st17" width="2" height="1.7"/>
	</g>
	<g>
		<defs>
			<path id="SVGID_35_" d="M53.5,227.4c0,0.1,0.1,0.1,0.3,0.1s0.3-0.1,0.3-0.1c0-0.1-0.1-0.1-0.3-0.1S53.5,227.3,53.5,227.4"/>
		</defs>
		<clipPath id="SVGID_36_">
			<use xlink:href="#SVGID_35_"  style="overflow:visible;"/>
		</clipPath>
		<rect x="52.8" y="226.6" class="st18" width="2" height="1.6"/>
	</g>
	<g>
		<defs>
			<path id="SVGID_37_" d="M61.3,227.8c-0.1,0-0.2,0.2-0.2,0.3c0,0.2,0.1,0.2,0.3,0.1C61.8,227.9,61.8,227.6,61.3,227.8"/>
		</defs>
		<clipPath id="SVGID_38_">
			<use xlink:href="#SVGID_37_"  style="overflow:visible;"/>
		</clipPath>
		<rect x="60.5" y="227" class="st19" width="1.9" height="1.8"/>
	</g>
	<g>
		<defs>
			<path id="SVGID_39_" d="M49.2,228c-0.1,0.2,0.2,0.4,0.3,0.3c0.1-0.1,0.1-0.2-0.1-0.3C49.3,227.8,49.2,227.8,49.2,228"/>
		</defs>
		<clipPath id="SVGID_40_">
			<use xlink:href="#SVGID_39_"  style="overflow:visible;"/>
		</clipPath>
		<rect x="48.5" y="227.2" class="st20" width="1.7" height="1.8"/>
	</g>
	<g>
		<defs>
			<path id="SVGID_41_" d="M60.2,227.9c-0.2,0.2-0.1,0.3,0.2,0.3c0.1,0,0.3-0.1,0.3-0.2C60.6,227.8,60.3,227.7,60.2,227.9"/>
		</defs>
		<clipPath id="SVGID_42_">
			<use xlink:href="#SVGID_41_"  style="overflow:visible;"/>
		</clipPath>
		<rect x="59.4" y="227.2" class="st21" width="1.9" height="1.7"/>
	</g>
	<g>
		<defs>
			<path id="SVGID_43_" d="M295.2,228.4c-0.6,0.8-1.1,2.6-1.1,3.6c0,0.6,0,0.9-0.3,1.3c-0.2,0.3-0.3,0.5-0.3,0.6
				c0,0.1-0.1,0.2-0.3,0.2c-0.3,0-0.3,0.1-0.3,0.5c0,0.3,0.1,0.5,0.2,0.6c0.1,0,0.2,0,0.3-0.1c0-0.1,0.1-0.1,0.4,0.1
				c0.3,0.2,0.3,0.2,0.1,0.6c-0.2,0.5-0.5,1.8-0.5,2.4c0,0.2-0.1,0.5-0.1,0.5c-0.2,0.1-0.1,0.8,0.4,2l0.4,1l-0.8,0.7l0,5.8
				c0,5,0,5.9,0.2,6.2c0.1,0.2,0.2,0.6,0.2,0.8c0,0.2,0.1,0.9,0.2,1.6c0.1,0.7,0.2,1.6,0.2,2c0,0.6,0.2,1.4,0.6,2.8
				c0.3,1.1,0.8,3,1.1,4.3c0.3,1.3,0.6,2.8,0.8,3.5c0.2,0.7,0.3,1.5,0.3,2c0,0.7,0.1,1.1,0.8,2.9c0.4,1.1,1.1,2.7,1.3,3.5
				c0.7,1.7,1.4,3.1,2.2,3.8c0.8,0.7,2.5,1.6,2.8,1.4c0.3-0.2,0.2-0.7-0.1-1.3c-0.9-1.7-1.2-2.1-1.5-2.6c-0.4-0.5-0.4-0.5-0.2-1
				c0.2-0.6,0.2-0.8,0.1-1.4c-0.1-0.4-0.2-0.5-0.3-0.4c-0.4,0.4-0.4,0.1-0.4-1.1c0-1,0-1.3-0.2-1.6c-0.3-0.4-0.5-0.4-0.5-0.1
				c0,0.1-0.1-0.1-0.3-0.6c-0.3-0.8-0.3-3.1-0.1-3.8c0.1-0.3,0.1-0.3,0.6,0.2l0.5,0.6v-1.4c0-0.8,0-1.5-0.1-1.6
				c0-0.1-0.3-0.3-0.6-0.5c-0.5-0.2-0.5-0.3-0.5-0.9c0-0.8,0.2-1.2,0.5-1.1c0.3,0.1,0.3,0,0.3-1.9c0-2,0-2-0.4-2.6
				c-0.5-0.7-0.5-0.8-0.1-2.5c0.1-0.8,0.3-2,0.3-2.7c0-1.6,0.2-1.1,0.3,1c0.1,1.6,0.3,1.3,0.4-0.7c0-0.8,0.2-2.5,0.3-3.6
				c0.2-1.8,0.2-2.1,0-2.6c-0.3-0.8-0.3-1.4,0.3-4.9c0.5-2.9,1.6-8.8,1.8-9.2c0.1-0.3-0.3-1.6-0.6-1.8c-0.2-0.1-0.3-0.3-0.2-0.4
				c0.1-0.2,0.1-0.2,0.4-0.1c0.3,0.1,0.4,0.1,0.5-0.1c0.1-0.1,0.2-0.4,0.2-0.6v-0.4l-0.6,0.2c-1.1,0.4-1.8-0.1-2.2-1.4
				c-0.2-0.7-0.5-1.1-0.8-1.1c-0.1,0-0.2,0.2-0.2,0.4c0,0.2,0,0.5-0.1,0.5c0,0-1-0.3-2.2-0.9c-1.1-0.5-2.2-1-2.4-1
				C295.6,227.9,295.5,227.9,295.2,228.4L295.2,228.4z M301.8,243.8c0,0.4-0.2,0.7-0.4,0.6c-0.1-0.1-0.1-0.2,0-0.5
				C301.5,243.4,301.8,243.3,301.8,243.8L301.8,243.8z M299.8,254.6c0,0.3-0.1,0.4-0.2,0.4c-0.2,0-0.3-0.5-0.1-0.7
				C299.7,254.1,299.8,254.2,299.8,254.6L299.8,254.6z M301,267.4c0,0.2-0.3,0.7-0.5,0.7c-0.1,0-0.1-0.1,0-0.4
				C300.7,267.4,301,267.2,301,267.4L301,267.4L301,267.4z"/>
		</defs>
		<clipPath id="SVGID_44_">
			<use xlink:href="#SVGID_43_"  style="overflow:visible;"/>
		</clipPath>
		<rect x="292.2" y="227.2" class="st22" width="12.7" height="56.3"/>
	</g>
	<g>
		<defs>
			<path id="SVGID_45_" d="M355.6,228.5c-0.7,1.2-1,2.1-1,3.2c0,0.8-0.1,1.2-0.3,1.5c-0.1,0.2-0.3,0.7-0.4,1c-0.1,0.5,0,0.6,0.3,0.8
				c0.3,0.3,0.3,0.3,0.2,0.6c-0.1,0.2-0.3,0.8-0.4,1.5c-0.1,0.7-0.2,1.3-0.3,1.5c-0.1,0.4,0,1,0.5,2.2l0.3,0.8l-0.3,0.3
				c-0.2,0.1-0.4,0.4-0.5,0.6c-0.1,0.2-0.1,2.1-0.1,6c0,4.8,0,5.7,0.2,5.9c0.1,0.1,0.2,0.5,0.2,0.7c0,0.3,0.1,0.9,0.2,1.5
				c0.1,0.6,0.2,1.5,0.2,2c0,0.7,0.2,1.4,0.6,2.9c0.3,1.1,0.8,3.1,1.1,4.4c0.3,1.3,0.6,2.9,0.8,3.5c0.2,0.6,0.3,1.5,0.3,1.9
				c0,0.8,0.4,1.9,1.3,4.1c0.3,0.6,0.7,1.7,1,2.4c1,2.6,2,3.9,3.7,4.7c1.8,0.9,1.9,0.4,0.5-2.2c-0.3-0.5-0.6-1.1-0.9-1.3
				c-0.4-0.5-0.4-0.5-0.2-1c0.2-0.5,0.2-0.6,0-1.3c-0.1-0.6-0.2-0.7-0.3-0.5c-0.1,0.1-0.2,0.2-0.3,0.2c-0.1,0-0.1-0.4-0.1-1.3
				c0-1,0-1.3-0.2-1.6c-0.2-0.3-0.2-0.3-0.4-0.1c-0.1,0.2-0.2,0.1-0.4-0.6c-0.2-0.9-0.3-2.2-0.2-3.4l0.1-0.6l1,1v-3l-0.4-0.3
				c-0.7-0.4-0.8-0.5-0.8-1.1c0-0.8,0.2-1.1,0.5-1c0.3,0.1,0.3,0,0.3-2v-2l-0.4-0.6c-0.5-0.7-0.5-0.8-0.1-2.5
				c0.2-0.8,0.3-1.9,0.3-2.7c0-1.6,0.2-1.3,0.3,0.7c0.1,0.7,0.1,1.2,0.2,1.2c0.1,0,0.1-0.7,0.2-1.6c0.1-0.9,0.2-2.5,0.3-3.6
				c0.2-1.8,0.2-2,0-2.8c-0.2-0.6-0.2-1-0.1-1.6c0.1-1.4,1.1-6.8,1.7-9.8c0.7-3.2,0.7-3.8,0-4.4c-0.5-0.4-0.3-0.8,0.2-0.5
				c0.3,0.1,0.4,0.1,0.5-0.1c0.1-0.1,0.2-0.4,0.2-0.6v-0.4l-0.5,0.2c-0.7,0.3-1.2,0.2-1.7-0.2c-0.3-0.3-0.5-0.6-0.7-1.2
				c-0.2-0.8-0.5-1.1-0.8-1.1c-0.1,0-0.2,0.2-0.2,0.5c0,0.3-0.1,0.5-0.2,0.5c-0.1,0-1.1-0.4-2.3-0.9c-1.2-0.5-2.2-1-2.2-1
				C356.1,227.8,355.9,228.1,355.6,228.5L355.6,228.5z M362.3,243.5c0.1,0.1-0.2,0.9-0.3,0.9c-0.1,0-0.1-0.2,0-0.6
				C362,243.5,362.1,243.4,362.3,243.5L362.3,243.5z M360.3,254.6c0,0.2-0.1,0.4-0.1,0.4c-0.1,0-0.1-0.2-0.1-0.4s0.1-0.4,0.1-0.4
				C360.2,254.2,360.3,254.4,360.3,254.6L360.3,254.6z M361.4,267.6c-0.1,0.2-0.1,0.4-0.2,0.4c-0.2,0.2-0.3,0-0.2-0.4
				C361.2,267.2,361.5,267.2,361.4,267.6L361.4,267.6L361.4,267.6z"/>
		</defs>
		<clipPath id="SVGID_46_">
			<use xlink:href="#SVGID_45_"  style="overflow:visible;"/>
		</clipPath>
		<rect x="353" y="227.2" class="st23" width="12.5" height="56.4"/>
	</g>
	<g>
		<defs>
			<path id="SVGID_47_" d="M49.8,228.1c0,0.1,0.1,0.2,0.2,0.2c0.1,0,0.2,0,0.1-0.1c0-0.1-0.1-0.2-0.2-0.2
				C49.8,227.9,49.7,228,49.8,228.1"/>
		</defs>
		<clipPath id="SVGID_48_">
			<use xlink:href="#SVGID_47_"  style="overflow:visible;"/>
		</clipPath>
		<rect x="49.1" y="227.3" class="st24" width="1.7" height="1.7"/>
	</g>
	<g>
		<defs>
			<path id="SVGID_49_" d="M317,228.4c-1.4,0.3-3.2,0.9-4.7,1.7c-1.1,0.5-1.6,0.9-2.3,1.6c-1,1-1.9,2.7-2,3.9c0,0.4-0.2,0.9-0.4,1.2
				l-0.3,0.4l0.4,0.9c0.2,0.5,0.4,1.1,0.4,1.4c0,0.3,0.2,1.4,0.3,2.5l0.3,2l-0.1,6.9c-0.1,8.3-0.4,12.3-0.9,12.7
				c-0.3,0.2-0.3,0.3-0.1,0.9c0.1,0.3,0.2,0.8,0.1,1c0,0.2,0,0.5,0.1,0.7c0.1,0.2,0.1,0.3-0.1,0.5c-0.2,0.2-0.2,0.3,0.2,0.3
				c0.5,0,0.6,0.3,0.4,1.1c-0.2,0.8-0.2,0.9-0.5,0.8c-0.1,0-0.2-0.2-0.2-0.5c0-0.6-0.2-0.7-0.3-0.1c-0.1,0.3,0,0.5,0.1,0.6
				c0.1,0.1,0.3,0.2,0.5,0.3c0.3,0.2,0.3,0.3,0.1,1c-0.1,0.6-0.2,0.8-0.4,0.7c-0.1,0-0.2,0-0.3,0.1c0,0.1-0.1,0.5-0.1,0.8
				c-0.1,0.6-0.1,0.6,0.1,0.4c0.1-0.1,0.2-0.4,0.3-0.6c0.1-0.5,0.3-0.4,0.4,0.3c0.3,1.1,0.3,1.3-0.1,2.4c-0.3,1-0.3,1.1-0.1,1.2
				c0.2,0.1,0.2,0.4,0.2,1.4c0,1.2,0,1.4-0.4,2.2c-0.4,0.8-0.4,1-0.4,1.9c0,0.5,0.1,1.1,0.1,1.2c0,0.2,0.2,0.5,0.5,0.8
				c0.4,0.4,0.4,0.6,0.3,0.7c-0.1,0.1-0.2,0.1-0.3,0c-0.3-0.3-0.2,0.4,0.3,1.3c0.5,1.1,0.5,1.1,0.3,1.1c-0.2,0-0.4,0.7-0.6,1.6
				c-0.1,0.8,0.2,1.9,0.6,2.2c0.3,0.2,0.4,0.4,0.6,1.8c0.2,1.1,0.3,1.7,0.6,2.2c0.2,0.3,0.4,0.9,0.6,1.3c0.2,0.6,0.4,0.9,1.6,2
				c0.8,0.7,1.4,1.2,1.4,1.1c0.1-0.1,0.3,0.1,0.6,0.4c0.5,0.5,0.5,0.6,0.5,1l-0.1,0.4l0.5-0.3c0.4-0.2,0.5-0.3,0.7-0.1
				c0.1,0.1,0.2,0.3,0.1,0.4c-0.1,0.2,0,0.2,0.5,0.2l0.5-0.1v0.6c0,0.5,0,0.6,0.2,0.6c0.1,0,0.4,0.1,0.6,0.2c0.3,0.2,0.3,0.1,0.5,0
				c0.2-0.3,0.2-0.5-0.4-3.2c-0.5-2.1-0.5-2.7-0.5-3.9l0-1.4l-0.4-0.1c-0.6-0.1-0.6-0.3-0.2-0.8c0.2-0.3,0.4-0.6,0.4-0.8
				c0-0.4-0.5-2.4-0.8-3.1c-0.2-0.6-0.2-0.7,0-0.6c0.3,0.1,0.5-1,0.3-1.5c-0.1-0.2-0.1-1.3-0.1-2.6l0-2.3l-0.6,1l0-1.9
				c0-1.5,0-1.9,0.2-1.9c0.1,0,0.2-0.1,0.1-0.6c-0.1-0.4-0.1-1,0-1.9l0.2-1.3h2.5v0.5c0,0.5,0,0.5,0.2,0.4c0.1-0.1,0.9-0.1,1.6-0.2
				c1.2,0,1.4,0,1.6,0.1c0.3,0.2,1.6,0.3,3,0.1c0.7-0.1,0.9-0.1,1,0.1c0.1,0.2,0.2,0.1,0.6-0.2c0.4-0.4,0.5-0.4,0.7-0.2
				c0.2,0.1,0.3,0.3,0.3,0.6c0,0.4,0,0.4,0.3,0.4c0.2,0,0.4-0.1,0.5-0.4c0.2-0.5,0.5-0.8,1-1c0.3-0.2,0.4-0.2,0.5,0
				c0.2,0.3,0.3,0.3,0.7-0.4c0.3-0.6,0.4-0.6,0.7-0.5c0.3,0.1,0.5,0,0.7-0.2c0.2-0.1,0.4-0.2,0.5-0.2c0.3,0.1,0.3,0.2-0.1,0.4
				c-0.4,0.2-0.3,0.6,0.1,0.9c0.3,0.2,0.4,0.2,2-0.5c2.1-1,2.6-1.1,2.7-1c0,0.1,0.2,0.1,0.4,0.1c0.3,0,0.3-0.1,0.3-0.3
				c0-0.2,0.1-0.4,0.5-0.7c0.6-0.4,1-0.6,1-0.3c0,0.1,0.6,0.2,0.7,0.1c0,0,0-0.2-0.1-0.4c-0.2-0.3-0.3-1-0.1-1c0,0,0.2,0.2,0.5,0.4
				c0.6,0.6,0.9,0.6,1.2,0.1c0.2-0.2,0.5-0.5,0.7-0.6l0.4-0.2l-0.2,0.7l0.4-0.2c1.4-0.9,1.4-0.9,1.4-1.4c0-0.5,0.1-0.5,0.9-0.7
				c0.8-0.2,0.9-0.3,1.3-1c0.2-0.4,1-1.2,1.6-1.8c1.3-1.1,1.5-1.4,2.3-2.3l0.5-0.6l-0.6-0.5l0.4,0c0.7,0,0.9-0.4,1.3-1.7
				c0.3-0.9,0.5-1.3,0.9-1.8c0.7-0.7,0.7-1.1,0.4-1.7c-0.2-0.4-0.3-0.7-0.2-1.6c0-1,0-1.2-0.3-1.6c-0.3-0.4-0.3-0.6-0.3-1.5
				c0-0.9,0-1-0.3-1c-0.2,0-0.4,0.1-0.5,0.2c-0.4,0.4-0.5,0.1-0.2-0.7c0.3-0.7,0.3-0.8,0.1-1c-0.3-0.2-0.5-1-0.3-1
				c0.1,0,0-0.3-0.2-0.6c-0.2-0.3-0.4-1-0.6-1.6c-0.2-0.6-0.4-1-0.7-1.3c-0.2-0.2-0.4-0.5-0.5-0.8c-0.1-0.3-0.2-0.5-0.3-0.5
				c-0.3,0-0.5-0.2-0.4-0.3c0-0.1,0.1-0.1,0.2,0c0.2,0.1,0.1-0.1-0.4-0.7c-0.2-0.2-0.3-0.4-0.3-0.4c0,0-0.1,0-0.3,0.1
				c-0.4,0.2-0.5,0.1-0.3-0.3c0.1-0.3,0.1-0.3-0.1-0.5c-0.2-0.2-0.3-0.2-0.3,0.1c-0.1,0.3-0.1,0.3-0.4-0.1c-0.2-0.3-0.3-0.7-0.4-1
				c-0.1-0.4-0.3-0.8-0.9-1.5c-0.5-0.5-1-1.2-1.3-1.5c-0.4-0.5-2.2-2-2.4-2c-0.2,0,0,0.5,0.6,1.1c0.3,0.4,0.5,0.7,0.4,0.6
				c-0.5-0.2-4-2.4-4.9-3.1c-0.5-0.4-1-0.7-1.1-0.7c-0.1,0-0.5-0.2-0.9-0.4c-0.7-0.4-0.8-0.4-0.6-0.7c0.2-0.3,0.2-0.3,1.4,0.2l1,0.5
				l-0.2-0.4c-0.1-0.2-0.4-0.5-0.7-0.6c-0.3-0.1-0.6-0.4-0.8-0.6l-0.3-0.4l-1.4,0.6l-0.6-0.6l0.4-0.3c0.4-0.3,0.4-0.3,0.1-0.3
				c-0.2,0-0.5-0.2-0.8-0.5c-0.6-0.5-0.6-0.5-1.2-0.3c-0.5,0.1-0.5,0.2-0.5,0.6c0,0.4,0.1,0.5,0.5,0.7c0.8,0.4,2.2,1.2,2.1,1.2
				c0,0-0.8-0.2-1.6-0.4c-1.2-0.3-1.7-0.5-1.9-0.8c-0.4-0.4-0.4-0.6,0-0.7c0.5-0.1,0.4-0.4-0.2-0.7c-0.4-0.2-0.6-0.3-0.7-0.8
				l-0.1-0.6l-0.7,0.1c-0.6,0.1-0.8,0.2-0.9,0.5c-0.3,0.6-0.7,0.7-0.7,0.1c0-0.4-0.8-0.8-1.3-0.7c-0.3,0.1-0.4,0-0.7-0.3
				c-0.3-0.3-0.4-0.4-1-0.3c-0.4,0-0.7,0-0.8,0c-0.1-0.1-0.7-0.2-1.4-0.4c-1.1-0.2-1.3-0.2-1.6-0.1c-0.5,0.2-0.5,0.2-0.5-0.1
				c-0.1-0.2-0.2-0.3-0.8-0.3C318.2,228.2,317.5,228.3,317,228.4L317,228.4z M329.7,231.7c0,0.5-0.1,0.5-0.5,0.2
				c-0.2-0.1-0.5-0.2-0.7-0.2c-0.2,0-0.4-0.1-0.5-0.2c-0.1-0.1,0.1-0.1,0.6-0.1c0.4,0.1,0.7,0,0.8,0
				C329.6,231.1,329.7,231.3,329.7,231.7L329.7,231.7z M334,233.4C334,233.5,334,233.5,334,233.4c-0.1,0.1-0.1,0-0.1,0
				C333.9,233.4,333.9,233.4,334,233.4C334,233.4,334,233.4,334,233.4L334,233.4z M325.6,235.9c0.5,0.2,0.7,0.3,0.9,0.1
				c0.4-0.2,0.5-0.2,0.9,0.1c0.3,0.2,0.4,0.2,0.6,0.1c0.2-0.1,0.4-0.1,0.6,0.1c0.2,0.1,1.4,0.5,2.6,0.9c3.1,1,4.9,1.9,6.8,3.2
				c3.2,2.1,6.4,5,7.2,6.5c0.5,0.8,1,2.9,1.2,4.8c0.2,1.9,0.1,2.2-0.6,3.5c-0.7,1.4-1.3,2.1-3.2,4c-1.4,1.4-1.7,1.8-1.8,2.2
				c-0.1,0.5-0.1,0.5-0.4,0.5c-0.2,0-0.7,0.1-1.5,0.6c-1,0.5-1.3,0.6-1.4,0.4c-0.1-0.2-0.2-0.1-0.7,0.4c-0.4,0.4-1.2,0.9-2.1,1.4
				c-0.8,0.4-1.8,1-2.1,1.3c-0.4,0.4-0.6,0.5-0.6,0.3c0-0.4-0.9-0.3-1.6,0.2c-0.6,0.4-0.6,0.4-0.6,0.1c0-0.3,0-0.3-0.3,0.1
				c-0.3,0.4-0.4,0.5-1.3,0.7c-0.3,0-0.7,0.2-0.9,0.4c-0.3,0.2-0.4,0.2-0.5,0.1c-0.3-0.3-0.9-0.2-1.2,0.2c-0.2,0.2-0.3,0.4-0.3,0.5
				c0,0.1-0.9,0.1-1.9,0.1c-1.5,0-2.2-0.1-3-0.3l-1.1-0.3l-0.3,0.3c-0.2,0.2-0.4,0.3-0.5,0.3c-0.2,0-0.6-0.5-0.6-0.8
				c0-0.2-0.1-0.2-0.6-0.2h-0.6l0.1-0.8c0.1-1.1,1.1-3.1,1.9-3.9c0.4-0.4,0.6-0.7,0.7-1.1c0.1-0.5,0.5-0.9,1.9-2.2
				c0.6-0.5,0.9-1.1,0.7-1.3c0,0-0.2,0-0.5,0.1c-0.2,0.1-0.4,0.2-0.5,0.2c-0.1,0,0.7-1.3,1-1.5c0.2-0.2,0.3-0.2,0.3,0.1
				c0,0.3,0,0.3,0.2,0.1c0.1-0.2,0.2-0.3,0.1-0.4c-0.1-0.1,0.4-0.6,1.3-1.5c1.2-1.2,2.4-2.5,2.4-2.7c0,0-0.1-0.1-0.2-0.1
				c-0.1,0-0.6,0.2-1.1,0.5c-1,0.7-1.2,0.7-1.2,0.2c0-0.3,0-0.4,0.2-0.3c0.2,0.1,0.2,0.1,0.2-0.1c0-0.2,0.1-0.3,0.4-0.4
				c0.6-0.2,1-0.6,1-1.2c0-1.1-0.1-1.1-1.2-0.1c-0.9,0.8-1,0.9-0.8,1.1c0.2,0.2,0.2,0.2-0.2,0.9c-0.3,0.6-0.4,0.7-0.4,0.4
				c0-0.4-0.2-0.5-0.3-0.2c0,0.1-0.1,0.1-0.2,0.1c-0.2-0.2,0.1-0.6,0.4-0.8c0.3-0.1,0.3-0.2,0.1-0.3c-0.4-0.3-2.8,0.4-4.1,1.2
				c-0.5,0.3-2,0.9-2.1,0.8c-0.1-0.1-0.3-13.7-0.2-14.2c0.2-1.1,0.8-1.7,2.3-2.7c0.9-0.6,1-0.6,2.7-0.9c1-0.2,1.9-0.3,2-0.3
				c0.2,0,0.5-0.2,0.7-0.3C324.6,235.6,324.8,235.6,325.6,235.9L325.6,235.9z M344.7,240.6c0,0.2-0.2,0.1-0.4,0
				c-0.3-0.3-0.2-0.4,0.1-0.2C344.6,240.4,344.7,240.5,344.7,240.6L344.7,240.6z M351.6,259.2c0,0.2-0.1,0.4-0.1,0.4
				c-0.1,0-0.1-0.2-0.1-0.4s0.1-0.4,0.1-0.4C351.6,258.9,351.6,259,351.6,259.2L351.6,259.2z M319.7,260c0,0.2-0.5,0.5-0.6,0.4
				c0,0,0.1-0.2,0.3-0.3C319.7,259.7,319.7,259.7,319.7,260L319.7,260z M318.8,261c-0.2,1.3-0.3,1.3-0.6,1.4
				c-0.3,0.1-0.3,0.1-0.3-0.6c0-0.5,0.1-0.8,0.3-1C318.7,260.4,318.9,260.5,318.8,261L318.8,261z M337.5,264.1
				c-0.6,0.6-0.7,1-0.2,0.9c0.2,0,0.3,0,0.3,0c0,0.1-0.9,0.9-1.7,1.5c-0.6,0.5-0.7,0.5-0.9,0.3c-0.2-0.2-0.2-0.2,0.4-0.6
				c0.7-0.5,1.2-1.2,1.2-1.8c0-0.4,0.1-0.4,0.6-0.6C338,263.6,338,263.6,337.5,264.1L337.5,264.1z M342.8,264.8
				c-0.4,0.7-0.7,1-1.9,1.6l-1.3,0.7l-0.2-0.5c-0.1-0.3-0.1-0.7-0.1-0.8c0.1-0.3,1-1,1.3-0.8c0.1,0,0.2,0.3,0.3,0.6
				c0.1,0.3,0.2,0.5,0.3,0.5c0.1,0,0.2-0.3,0.4-0.6c0.3-0.6,0.4-0.7,1.1-0.7C342.8,264.7,342.9,264.7,342.8,264.8L342.8,264.8z
				 M345.4,265.3c0,0,0,0.1-0.1,0.3c-0.1,0.3-0.3,0.3-0.3-0.1c0-0.1,0.1-0.3,0.2-0.3C345.3,265.2,345.4,265.2,345.4,265.3
				L345.4,265.3z M334.8,267.4c0,0.2-0.1,0.3-0.4,0.3c-0.5,0.1-0.9-0.1-0.9-0.4c0-0.1,0.2-0.4,0.5-0.7l0.5-0.6l0.2,0.5
				C334.7,266.9,334.8,267.3,334.8,267.4L334.8,267.4z M337.9,266.9c-0.1,0.2-0.1,0.2-0.2-0.1c-0.1-0.3,0-0.4,0.1-0.5
				C338,266.1,338.1,266.6,337.9,266.9L337.9,266.9z M330.9,267.3c0.1,0.2,0.3,0.2,1.2,0c0.2-0.1,0.3,0,0.6,0.7l0.3,0.8l-0.4,0.6
				c-0.3,0.5-0.4,0.5-0.5,0.3c-0.1-0.1-0.1-0.5-0.1-0.9l0-0.6l-0.6,0c-0.9,0-1.7,0.2-3,0.8c-1,0.5-1.2,0.5-1.5,0.4
				c-0.2-0.1-0.3-0.2-0.3-0.2c0,0,0.5-0.3,1-0.7c0.7-0.5,1-0.6,1.5-0.6c0.4,0,0.7-0.1,1.1-0.4C330.7,267,330.7,267,330.9,267.3
				L330.9,267.3z M336.8,268c0,0.1-0.1,0.2-0.1,0.3c-0.2,0.2-0.3,0.1-0.2-0.2C336.5,267.9,336.8,267.8,336.8,268L336.8,268z
				 M319.8,269.8c0,0.1-0.1,0.2-0.3,0.2c-0.2,0-0.3-0.1-0.3-0.2c0-0.1,0.1-0.2,0.3-0.2C319.7,269.6,319.8,269.7,319.8,269.8
				L319.8,269.8z M321.7,270.8c-0.3,0-0.5,0-0.5,0c0,0,0-0.3,0.2-0.6l0.2-0.5l0.6,1.1L321.7,270.8L321.7,270.8z M334.9,270
				c0,0.1-0.4,0.3-0.5,0.2c0,0,0-0.1,0.1-0.2C334.8,269.8,334.9,269.8,334.9,270L334.9,270z M323,270.4c-0.3,0.3-0.5,0.3-0.5,0.1
				c0-0.2,0.6-0.5,0.7-0.4C323.2,270.1,323.2,270.3,323,270.4L323,270.4z M339,270.1c0,0.2-0.3,0.3-0.3,0.2
				c-0.1-0.1,0.1-0.4,0.2-0.4C339,270,339,270,339,270.1L339,270.1z M343.1,270.4c0,0.1-0.4,0.3-0.5,0.2c0,0,0-0.1,0.1-0.2
				C343,270.2,343.1,270.2,343.1,270.4L343.1,270.4z M314.5,272.8c-0.2,0.2-0.3,0.1-0.2-0.2c0.1-0.2,0.1-0.2,0.2-0.1
				C314.6,272.6,314.6,272.7,314.5,272.8L314.5,272.8z M319,273.3c0.1,0.5,0,0.5-0.4,0.2c-0.4-0.3-0.3-0.5,0.1-0.5
				C318.8,272.9,318.9,273,319,273.3L319,273.3z M317,273.7c0,0.1-0.7,0.4-0.9,0.4c-0.2,0-0.3-0.4-0.1-0.7c0.1-0.2,0.2-0.2,0.6,0
				C316.8,273.5,317,273.7,317,273.7L317,273.7z M327.9,274.6c0,0.1-0.1,0.2-0.2,0.2c-0.3,0.1-0.4,0.1-0.2-0.1
				C327.7,274.5,327.9,274.4,327.9,274.6L327.9,274.6z M308.3,281.2c0.3,0.3,0.3,0.7-0.1,1.1l-0.3,0.4l0.1-0.5
				c0-0.3,0.1-0.6,0.1-0.8C308,280.9,308,280.9,308.3,281.2L308.3,281.2z M315.2,281.3c0,0.1-0.1,0.1-0.1,0.1
				c-0.1,0-0.1-0.1-0.1-0.2s0.1-0.2,0.1-0.1C315.1,281.1,315.2,281.2,315.2,281.3L315.2,281.3z M315.3,285.7
				c-0.2,0.2-0.3,0.1-0.2-0.2c0.1-0.2,0.1-0.2,0.2-0.1C315.4,285.5,315.4,285.6,315.3,285.7L315.3,285.7z M309.1,286.4
				c0,0.1-0.1,0.2-0.2,0.2c-0.1,0-0.2-0.3,0-0.4C309,286,309.2,286.2,309.1,286.4L309.1,286.4z M314.6,299.5
				c-0.1,0.1-0.1,0.1-0.1-0.1c0-0.3,0.2-0.4,0.2-0.3C314.8,299.3,314.7,299.4,314.6,299.5L314.6,299.5L314.6,299.5z"/>
		</defs>
		<clipPath id="SVGID_50_">
			<use xlink:href="#SVGID_49_"  style="overflow:visible;"/>
		</clipPath>
		<rect x="306.6" y="227.6" class="st25" width="47.4" height="74.7"/>
	</g>
	<g>
		<defs>
			<path id="SVGID_51_" d="M56.4,228.5c0,0.2,0.6,0.3,0.8,0.2c0.1-0.1,0-0.2-0.4-0.3C56.5,228.3,56.4,228.4,56.4,228.5"/>
		</defs>
		<clipPath id="SVGID_52_">
			<use xlink:href="#SVGID_51_"  style="overflow:visible;"/>
		</clipPath>
		<rect x="55.7" y="227.7" class="st26" width="2.1" height="1.7"/>
	</g>
	<g>
		<defs>
			<path id="SVGID_53_" d="M64.5,228.8c0,0.2,0.2,0.3,0.9,0.5c0.5,0.2,0.3-0.2-0.4-0.5C64.6,228.7,64.5,228.7,64.5,228.8"/>
		</defs>
		<clipPath id="SVGID_54_">
			<use xlink:href="#SVGID_53_"  style="overflow:visible;"/>
		</clipPath>
		<rect x="63.8" y="228" class="st27" width="2.5" height="2"/>
	</g>
	<g>
		<defs>
			<path id="SVGID_55_" d="M63.5,228.9c0.2,0.2,0.7,0.4,0.7,0.2c0-0.1-0.4-0.4-0.7-0.4C63.4,228.7,63.4,228.8,63.5,228.9"/>
		</defs>
		<clipPath id="SVGID_56_">
			<use xlink:href="#SVGID_55_"  style="overflow:visible;"/>
		</clipPath>
		<rect x="62.8" y="228.1" class="st28" width="2.1" height="1.8"/>
	</g>
	<g>
		<defs>
			<path id="SVGID_57_" d="M382.8,231.3l-3.1,2l-0.5,0.9c-0.3,0.5-0.7,1.1-1,1.3c-0.9,0.7-2,1.9-2,2.1c0,0.1-0.5,0.9-1.1,1.7
				c-1.7,2.2-2.9,3.9-3.2,4.6c-0.2,0.4-0.8,1.5-1.4,2.5c-1,1.6-1.8,3.2-1.8,3.7c0,0.1-0.2,0.4-0.5,0.7c-0.7,0.8-1,1.5-1.5,3.8
				c-0.9,4.3-1,5-0.5,7.3c0.3,1.5,0.9,4,1.4,5.9c0.1,0.4,0.2,0.5,0.5,0.5c0.3,0,0.4,0.1,0.4,0.5c0.1,0.6,0.7,1.6,1.2,2.2
				c0.2,0.2,0.6,0.7,0.8,1c0.2,0.3,0.7,0.7,1,0.9c0.3,0.2,0.9,0.6,1.2,1.1c0.5,0.7,0.7,0.8,2,1.4l1.4,0.6l0.4-0.3
				c0.5-0.4,0.6-0.4,0.6,0c0,0.5,0.3,0.5,1,0.3c0.6-0.2,0.6-0.2,1.2,0.1c0.7,0.4,1,0.4,1.1,0.2c0.1-0.1,0.4-0.2,1.7-0.1
				c1.3,0.1,1.7,0,1.9-0.1c0.1-0.1,0.5-0.7,0.7-1.3c0.3-0.6,0.6-1.1,0.6-1.1c0.1,0,0.2,0.1,0.3,0.2c0.1,0.2,0.2,0.2,0.4-0.2
				c0.3-0.5,0.5-0.6,0.8-0.4c0.2,0.1,0.3,0.1,0.3-0.4c0.1-0.6,0.1-0.6,0.4-0.4c0.2,0.1,0.3,0,0.6-0.6c0.3-0.6,0.4-0.7,0.8-0.8
				c1.7-0.4,4.3-2.7,4.8-4.3c0.2-0.6,0.4-0.7,0.5-0.3c0.1,0.2,0.2,0.1,1.1-0.8c0.8-0.8,1.1-1.2,1.3-1.8c0.2-0.5,0.5-1,0.8-1.3
				c1.2-1.3,1.4-1.6,1.4-2.1c0-0.4-0.1-0.6-0.3-0.7c-0.3-0.1-0.4-0.1-1,0.7c-0.4,0.5-1.1,1.2-1.4,1.6c-0.6,0.7-0.7,0.7-0.9,0.5
				c-0.2-0.2-0.2-0.2-0.3,0.3c-0.2,0.5-0.4,0.7-0.6,0.4c-0.2-0.2-0.4-0.1-0.7,0.3c-0.2,0.3-1,0.9-2,1.6c-1,0.6-1.8,1.2-1.9,1.2
				c-0.1,0-0.1,0.2,0,0.4c0.1,0.2,0.1,0.3,0.3,0.1c0.3-0.2,0.4-0.1,0.3,0.3c-0.2,0.5-0.6,0.1-1.1-0.9c0,0-0.9,0.4-1.9,1
				c-4.7,2.5-6,3.1-7.7,3.2c-2.1,0.2-3.8-0.8-5-2.7c-0.4-0.6-0.4-0.7-0.4-2.1c0-2.4,0.5-5.4,1-6.3c0.1-0.3,0.3-0.6,0.4-0.8
				c0.1-0.2,0.3-0.9,0.4-1.7c0.2-1.2,0.3-1.4,1-2.5c1-1.6,2.1-3.7,2.1-4.1c0-0.2,0.2-0.5,0.4-0.8c0.3-0.3,0.6-0.8,0.8-1.6
				c0.4-1.2,0.6-1.5,2.5-3.6c0.7-0.8,1.5-1.7,1.8-2.2c0.4-0.6,0.7-0.9,1.5-1.3c0.5-0.3,1.8-1.1,2.8-1.8c2.4-1.7,3.5-2.1,5.5-2.1
				c1.2,0,1.9,0.3,2.2,1c0.2,0.5,0.4,0.6,2.5,2.1c0.6,0.4,0.6,0.5,0.3,2.6c-0.2,1.4-0.2,1.6,0,4.2c0.2,2,0.2,4,0.2,6.9
				c0,2.2,0,4.1,0.1,4.1c0.2,0,0.6,1.1,0.6,1.5c0,0.3,0.2,1.7,0.4,3.1c0.4,2.3,0.4,2.6,0.7,2.9c0.4,0.4,0.3,0.6-0.1,0.5
				c-0.3-0.1-0.3,0-0.2,0.4c0,0.2,0.3,0.9,0.6,1.4c0.4,0.9,0.5,1,0.4,1.5c-0.1,0.4-0.1,0.7,0.2,1.4c0.2,0.5,0.4,1.6,0.6,2.4
				c0.4,1.7,0.9,3.4,1.2,3.8c0.2,0.3,0.2,0.3,0.5,0c0.3-0.3,0.3-0.3,0.1-1c-0.1-0.4-0.2-1-0.2-1.4c0-0.6,0.1-0.8,0.5-1.3
				c0.4-0.5,0.5-0.7,0.4-1.2c-0.2-1.3-0.6-6.3-0.5-6.4c0.2-0.3,0.4,0,0.7,1.1l0.4,1.1l0.1-4.3c0-2.4,0.1-4.7,0.2-5.2
				c0.1-0.6,0.1-1,0-1.4c-0.1-0.5-0.1-0.6,0-0.9c0.1-0.2,0.3-0.5,0.4-0.7c0.2-0.6,0.6-4.6,0.5-5.9c0-0.8,0.1-1.8,0.5-4
				c0.3-1.6,0.6-3.6,0.8-4.4c0.2-1.1,0.3-1.7,0.6-2.3l0.4-0.8l-0.5-1.1c-0.4-0.9-0.6-1.2-1-1.5c-0.7-0.5-1-0.5-1.2-0.4
				c-0.2,0.1-1.4-0.2-3.8-1.2c-1.2-0.5-1.3-0.5-1.4-0.2c-0.4,0.8-0.7,1.1-1,1.3c-0.3,0.2-0.4,0.2-1.7-0.5c-1.8-1-3.6-1.7-6.3-2.8
				c-3-1.1-3.5-1.3-3.8-1.1c-0.1,0.1-0.3,0.1-0.4,0c-0.1-0.1-0.4-0.3-0.7-0.5c-0.5-0.3-0.6-0.4-0.8-0.2c-0.2,0.1-0.3,0.1-0.5,0
				C385.9,229.3,385.6,229.5,382.8,231.3L382.8,231.3z M379.8,248.2c0,0.2-0.4,0.5-0.5,0.4c-0.1-0.1,0.2-0.6,0.3-0.6
				C379.7,248,379.8,248.1,379.8,248.2L379.8,248.2z M389,267.4c0,0.2-0.1,0.4-0.1,0.6c0,0.2-0.1,0.3-0.2,0.3
				c-0.2,0-0.2-0.2-0.1-0.8c0-0.2,0.2-0.4,0.3-0.4C389,267.1,389,267.2,389,267.4L389,267.4z M403.2,270.9c0.1,0.1,0.1,0.3,0,0.3
				c-0.1,0-0.4-0.3-0.4-0.4C402.8,270.6,403.1,270.7,403.2,270.9L403.2,270.9L403.2,270.9z"/>
		</defs>
		<clipPath id="SVGID_58_">
			<use xlink:href="#SVGID_57_"  style="overflow:visible;"/>
		</clipPath>
		<rect x="365.1" y="228.8" class="st29" width="45" height="48.6"/>
	</g>
	<g>
		<defs>
			<path id="SVGID_59_" d="M339.2,235l-0.3,0.3l0.6,0.5c0.3,0.3,0.6,0.5,0.6,0.5c0.1-0.1-0.4-1.5-0.5-1.5
				C339.5,234.7,339.3,234.8,339.2,235"/>
		</defs>
		<clipPath id="SVGID_60_">
			<use xlink:href="#SVGID_59_"  style="overflow:visible;"/>
		</clipPath>
		<rect x="338.2" y="234.1" class="st30" width="2.6" height="2.9"/>
	</g>
	<g>
		<defs>
			<path id="SVGID_61_" d="M292.6,235.5c-0.2,0.2-0.1,0.6,0.1,0.6c0.1,0,0.2-0.1,0.2-0.3C292.9,235.5,292.7,235.3,292.6,235.5"/>
		</defs>
		<clipPath id="SVGID_62_">
			<use xlink:href="#SVGID_61_"  style="overflow:visible;"/>
		</clipPath>
		<rect x="291.8" y="234.8" class="st31" width="1.7" height="1.9"/>
	</g>
	<g>
		<defs>
			<path id="SVGID_63_" d="M340.5,236.6c0.1,0.3,0.5,0.5,0.5,0.3c0-0.2-0.3-0.6-0.5-0.6C340.4,236.3,340.4,236.4,340.5,236.6"/>
		</defs>
		<clipPath id="SVGID_64_">
			<use xlink:href="#SVGID_63_"  style="overflow:visible;"/>
		</clipPath>
		<rect x="339.8" y="235.6" class="st32" width="1.9" height="2"/>
	</g>
	<g>
		<defs>
			<path id="SVGID_65_" d="M289,246.8c-0.8,1.6-0.9,1.9-0.7,1.9c0.1,0,1.7-3.1,1.7-3.3C290.1,244.9,289.7,245.4,289,246.8"/>
		</defs>
		<clipPath id="SVGID_66_">
			<use xlink:href="#SVGID_65_"  style="overflow:visible;"/>
		</clipPath>
		<rect x="287.6" y="244.5" class="st33" width="3.2" height="4.8"/>
	</g>
	<g>
		<defs>
			<path id="SVGID_67_" d="M54.1,249.1c-0.1,0.3-0.1,0.3,0.2,0.2c0.2,0,0.2-0.1,0.2-0.3C54.3,248.8,54.2,248.9,54.1,249.1"/>
		</defs>
		<clipPath id="SVGID_68_">
			<use xlink:href="#SVGID_67_"  style="overflow:visible;"/>
		</clipPath>
		<rect x="53.3" y="248.3" class="st34" width="1.8" height="1.8"/>
	</g>
	<g>
		<defs>
			<path id="SVGID_69_" d="M51.2,251.2c-0.1,0.1-0.1,0.2,0,0.3c0.2,0.3,0.4,0.2,0.4-0.2C51.6,251,51.5,250.9,51.2,251.2"/>
		</defs>
		<clipPath id="SVGID_70_">
			<use xlink:href="#SVGID_69_"  style="overflow:visible;"/>
		</clipPath>
		<rect x="50.5" y="250.4" class="st35" width="1.8" height="2"/>
	</g>
	<g>
		<defs>
			<path id="SVGID_71_" d="M300.7,265.1c0,0.1,0.1,0.3,0.3,0.4c0.3,0.2,0.3,0.1,0.2-0.4C301,264.7,300.7,264.7,300.7,265.1"/>
		</defs>
		<clipPath id="SVGID_72_">
			<use xlink:href="#SVGID_71_"  style="overflow:visible;"/>
		</clipPath>
		<rect x="300" y="264.2" class="st36" width="1.9" height="2.1"/>
	</g>
	<g>
		<defs>
			<path id="SVGID_73_" d="M361.2,265c0,0.1,0,0.3,0.1,0.3c0.4,0.2,0.5,0.1,0.3-0.3C361.5,264.8,361.3,264.8,361.2,265"/>
		</defs>
		<clipPath id="SVGID_74_">
			<use xlink:href="#SVGID_73_"  style="overflow:visible;"/>
		</clipPath>
		<rect x="360.5" y="264.2" class="st37" width="1.8" height="2"/>
	</g>
	<g>
		<defs>
			<path id="SVGID_75_" d="M307.2,272.9c0,0.2,0.1,0.4,0.1,0.5c0.1,0.1,0.1,0.1,0.3-0.1c0.1-0.2,0.1-0.3-0.1-0.5
				C307.2,272.6,307.2,272.6,307.2,272.9"/>
		</defs>
		<clipPath id="SVGID_76_">
			<use xlink:href="#SVGID_75_"  style="overflow:visible;"/>
		</clipPath>
		<rect x="306.5" y="272" class="st38" width="1.8" height="2.2"/>
	</g>
	<g>
		<defs>
			<path id="SVGID_77_" d="M330.5,274.7c-0.2,0.2,0,0.3,0.4,0.3c0.2,0,0.3-0.1,0.3-0.2C331.2,274.6,330.7,274.5,330.5,274.7"/>
		</defs>
		<clipPath id="SVGID_78_">
			<use xlink:href="#SVGID_77_"  style="overflow:visible;"/>
		</clipPath>
		<rect x="329.8" y="274" class="st39" width="2.1" height="1.7"/>
	</g>
	<g>
		<defs>
			<path id="SVGID_79_" d="M307.2,276.6c0,0.9,0,1.3,0.1,1.3c0.1,0,0.2-0.3,0.2-1.2C307.5,275,307.2,275,307.2,276.6"/>
		</defs>
		<clipPath id="SVGID_80_">
			<use xlink:href="#SVGID_79_"  style="overflow:visible;"/>
		</clipPath>
		<rect x="306.5" y="274.7" class="st40" width="1.6" height="3.8"/>
	</g>
	<g>
		<defs>
			<path id="SVGID_81_" d="M68.2,281c0,0.1,0.1,0.2,0.2,0.2c0.1,0,0.2,0,0.1-0.1c0-0.1-0.1-0.2-0.2-0.2
				C68.2,280.9,68.2,280.9,68.2,281"/>
		</defs>
		<clipPath id="SVGID_82_">
			<use xlink:href="#SVGID_81_"  style="overflow:visible;"/>
		</clipPath>
		<rect x="67.5" y="280.2" class="st41" width="1.7" height="1.7"/>
	</g>
	<g>
		<defs>
			<path id="SVGID_83_" d="M32.7,281.4c0,0.1,0.1,0.2,0.2,0.2c0.1,0,0.2,0,0.1-0.1c0-0.1-0.1-0.2-0.2-0.2
				C32.7,281.3,32.6,281.3,32.7,281.4"/>
		</defs>
		<clipPath id="SVGID_84_">
			<use xlink:href="#SVGID_83_"  style="overflow:visible;"/>
		</clipPath>
		<rect x="32" y="280.6" class="st42" width="1.7" height="1.7"/>
	</g>
	<g>
		<defs>
			<path id="SVGID_85_" d="M64.4,282.9c-0.1,0.1-0.2,0.2-0.2,0.3c0.1,0.1,0.6-0.2,0.6-0.4C64.9,282.7,64.7,282.7,64.4,282.9"/>
		</defs>
		<clipPath id="SVGID_86_">
			<use xlink:href="#SVGID_85_"  style="overflow:visible;"/>
		</clipPath>
		<rect x="63.5" y="282.1" class="st43" width="2" height="1.8"/>
	</g>
	<g>
		<defs>
			<path id="SVGID_87_" d="M107.1,310.8c-4.1,0.9-7.4,4-8.5,8c-0.3,1-0.3,1.3-0.3,7.2c0,6,0,6.2,0.3,7.2c1,3.7,4,6.7,7.7,7.8
				c1.4,0.4,3.6,0.5,5.1,0.2c2.8-0.6,5.9-2.6,6.2-4c0.1-0.7-0.3-1.6-0.9-1.9c-0.9-0.4-1.4-0.3-2.5,0.6c-1.4,1.2-3,1.8-4.8,1.8
				c-1.4,0-2.3-0.2-3.4-0.7c-1.7-0.8-3.1-2.4-3.8-4.2l-0.3-0.9l0-5.6c0-3.8,0-5.8,0.1-6.4c0.5-2.6,2.9-5.2,5.5-5.8
				c1-0.2,2.8-0.2,3.8,0.1c1.1,0.3,1.9,0.7,2.9,1.6c0.9,0.8,1.5,1,2.2,0.8c0.6-0.2,1.1-0.8,1.2-1.4c0.2-1.3-1.9-3.2-4.8-4.2
				c-1.2-0.4-1.4-0.4-3.1-0.5C108.5,310.7,107.4,310.8,107.1,310.8"/>
		</defs>
		<clipPath id="SVGID_88_">
			<use xlink:href="#SVGID_87_"  style="overflow:visible;"/>
		</clipPath>
		<rect x="97.6" y="310.1" class="st44" width="20.6" height="32"/>
	</g>
	<g>
		<defs>
			<path id="SVGID_89_" d="M131,310.9c-1.8,0.4-3.3,1.2-4.8,2.4c-1.8,1.5-3,3.4-3.6,5.6c-0.3,1-0.3,1.3-0.3,7.1c0,6.5,0,6.8,0.7,8.6
				c1.1,2.7,3.6,5.2,6.3,6.2c4.6,1.7,9.7,0.3,12.7-3.7c0.8-1.1,1.2-1.8,1.7-3.2l0.4-1.2l0-6.1c0-6.7,0-7.3-0.8-9.2
				c-1-2.5-3.5-4.9-6-5.9C135.7,310.7,132.8,310.5,131,310.9L131,310.9z M135.4,314.5c2.3,0.6,4.3,2.6,5.1,5.1
				c0.2,0.6,0.2,1.4,0.3,5.8c0.1,5.8,0,6.7-0.8,8.3c-0.6,1.2-2.2,2.9-3.4,3.5c-2.1,1-4.8,0.9-6.8-0.1c-1-0.5-2.4-1.9-3-2.9
				c-0.9-1.6-0.9-1.6-0.9-8.1c0-5.8,0-5.9,0.3-6.8C127.6,315.5,131.5,313.4,135.4,314.5L135.4,314.5L135.4,314.5z"/>
		</defs>
		<clipPath id="SVGID_90_">
			<use xlink:href="#SVGID_89_"  style="overflow:visible;"/>
		</clipPath>
		<rect x="121.7" y="310" class="st45" width="23.3" height="32.1"/>
	</g>
	<g>
		<defs>
			<path id="SVGID_91_" d="M150.1,310.9c-0.5,0.2-0.9,1-0.9,1.5c0,0.2,0.3,1.7,0.7,3.2c0.8,3.2,4.1,15.6,5.6,21.1
				c0.5,2,1.1,3.8,1.2,4.1c0.4,0.8,1.5,1,2.3,0.6c0.5-0.3,0.6-0.4,3.2-8.1c1.2-3.6,2.3-6.5,2.3-6.5c0,0,1.1,3.1,2.5,6.9
				c1.3,3.8,2.5,7,2.6,7.2c0.8,1,2.3,0.9,2.9-0.3c0.2-0.4,7.4-27.7,7.4-28.2c0-0.5-0.5-1.3-0.9-1.5c-0.8-0.4-2,0-2.4,0.7
				c-0.1,0.2-1.4,4.9-2.8,10.4c-1.5,5.6-2.8,10.4-2.9,10.8l-0.2,0.7l-0.2-0.5c-0.1-0.3-1.1-3.2-2.3-6.6c-1.9-5.6-2.2-6.2-2.6-6.6
				c-0.4-0.4-0.6-0.4-1.1-0.4c-0.7,0-1.3,0.3-1.6,0.8c-0.1,0.2-1.2,3.3-2.4,6.8c-1.6,4.6-2.3,6.4-2.3,6.2c-0.1-0.2-2.2-8.1-4.7-17.7
				c-0.5-1.8-1-3.5-1.1-3.8C152.2,310.9,151,310.4,150.1,310.9"/>
		</defs>
		<clipPath id="SVGID_92_">
			<use xlink:href="#SVGID_91_"  style="overflow:visible;"/>
		</clipPath>
		<rect x="148.6" y="310" class="st46" width="32.1" height="32.1"/>
	</g>
	<g>
		<defs>
			<path id="SVGID_93_" d="M193.5,310.9c-2,0.4-3.6,1.3-5.2,2.8c-1.7,1.6-2.8,3.5-3.2,5.7c-0.2,0.9-0.2,1.9-0.2,7.2l0,6.1l0.4,1.2
				c0.5,1.4,0.9,2.1,1.7,3.2c3,3.9,8,5.4,12.6,3.7c2-0.7,4.1-2.4,5.4-4.3c0.7-1.1,1.1-1.9,1.4-3.2c0.3-0.9,0.3-1.4,0.3-6.4
				c0.1-5.8,0-6.9-0.6-8.7c-1-3.2-3.9-6-7.3-7.1C197.8,310.7,194.8,310.6,193.5,310.9L193.5,310.9z M197.8,314.4
				c1.8,0.4,3.9,2.1,4.8,3.8c0.8,1.6,0.8,1.9,0.8,7.8c0,5.9-0.1,6.6-1,8.1c-0.6,1.1-2,2.4-3.2,3c-2.1,1-4.6,1-6.8,0
				c-1.1-0.5-2.8-2.3-3.3-3.4c-0.7-1.5-0.8-1.8-0.8-7.8c0-5,0-5.6,0.2-6.3c0.4-1.2,1-2.3,1.9-3.2
				C192.5,314.5,194.9,313.8,197.8,314.4L197.8,314.4L197.8,314.4z"/>
		</defs>
		<clipPath id="SVGID_94_">
			<use xlink:href="#SVGID_93_"  style="overflow:visible;"/>
		</clipPath>
		<rect x="184.3" y="310.1" class="st47" width="23.3" height="32.1"/>
	</g>
	<g>
		<defs>
			<path id="SVGID_95_" d="M212.5,311c-0.9,0.5-0.8-0.2-0.8,15.2c0,13.3,0,14,0.2,14.4c0.5,0.9,1.9,1.2,2.6,0.5
				c0.7-0.6,0.7-0.9,0.7-5v-3.8h6.7l4.6,4.6c3,3,4.7,4.6,5,4.7c1.4,0.3,2.7-1.2,2-2.4c-0.1-0.2-1.7-1.9-3.6-3.8
				c-1.9-1.9-3.4-3.4-3.4-3.5c0-0.1,0.2-0.2,0.5-0.3c2.1-0.7,4.4-2.9,5.6-5.3c0.8-1.5,1-2.7,1-4.7c0-2.1-0.2-3-1-4.7
				c-1.3-2.7-3.9-4.9-6.8-5.7c-0.7-0.2-1.6-0.2-6.8-0.3C213.1,310.7,212.9,310.7,212.5,311L212.5,311z M225.1,314.5
				c2.4,0.8,4.4,3,4.9,5.3c0.3,1.6,0.1,3.4-0.6,4.9c-0.5,1.1-2.2,2.7-3.3,3.2c-1.5,0.7-2.3,0.8-6.8,0.8h-4.1v-14.6l4.5,0.1
				C223.9,314.2,224.3,314.3,225.1,314.5L225.1,314.5L225.1,314.5z"/>
		</defs>
		<clipPath id="SVGID_96_">
			<use xlink:href="#SVGID_95_"  style="overflow:visible;"/>
		</clipPath>
		<rect x="211" y="310.1" class="st48" width="23.3" height="32.1"/>
	</g>
	<g>
		<defs>
			<path id="SVGID_97_" d="M239.3,311c-0.9,0.6-0.8-0.1-0.8,15.1c0,14.9,0,14.3,0.7,15c0.5,0.5,1.4,0.5,2,0.2
				c0.9-0.5,0.9-0.7,0.9-5.4v-4.2l3.1-3l6.3,6.3c3.5,3.5,6.5,6.4,6.6,6.5c0.7,0.4,1.8,0,2.2-0.8c0.1-0.2,0.2-0.6,0.2-1
				c0-0.6,0.3-0.4-8.2-8.8c-2.5-2.5-4.5-4.6-4.6-4.7c0-0.1,2.8-3,6.3-6.5l6.4-6.4v-0.6c0-1.1-0.7-1.9-1.8-1.9h-0.6l-15.9,15.9
				l-0.1-7.4c-0.1-5.7-0.1-7.4-0.2-7.7C241.4,310.8,240.1,310.5,239.3,311"/>
		</defs>
		<clipPath id="SVGID_98_">
			<use xlink:href="#SVGID_97_"  style="overflow:visible;"/>
		</clipPath>
		<rect x="237.8" y="310" class="st49" width="23.3" height="32.1"/>
	</g>
	<g>
		<defs>
			<path id="SVGID_99_" d="M265.9,311.2l-0.5,0.5v28.6l0.3,0.4c0.6,0.7,1.6,0.9,2.3,0.5c0.9-0.5,0.8,0.4,0.8-15.2v-14.1l-0.3-0.5
				c-0.4-0.6-0.8-0.8-1.5-0.8C266.5,310.7,266.4,310.8,265.9,311.2"/>
		</defs>
		<clipPath id="SVGID_100_">
			<use xlink:href="#SVGID_99_"  style="overflow:visible;"/>
		</clipPath>
		<rect x="264.8" y="310" class="st50" width="4.8" height="32.1"/>
	</g>
	<g>
		<defs>
			<path id="SVGID_101_" d="M274.3,311.2l-0.5,0.5v28.6l0.3,0.4c0.6,0.7,1.6,0.9,2.3,0.5c0.9-0.5,0.8,0.1,0.8-11.9
				c0-6,0-10.9,0.1-10.9c0.1,0,3.5,5.1,7.7,11.3c5.1,7.5,7.8,11.4,8,11.5c0.7,0.5,1.7,0.3,2.3-0.5l0.3-0.4v-14.3
				c0-13,0-14.3-0.2-14.6c-0.3-0.5-0.8-0.8-1.5-0.8c-0.7,0-1.1,0.2-1.5,0.8l-0.3,0.5v10.9c0,9.5,0,10.9-0.2,10.8
				c-0.1-0.1-3.5-5.1-7.6-11.2c-4.1-6.1-7.6-11.2-7.8-11.4c-0.3-0.3-0.5-0.4-1.1-0.4C274.9,310.7,274.8,310.8,274.3,311.2"/>
		</defs>
		<clipPath id="SVGID_102_">
			<use xlink:href="#SVGID_101_"  style="overflow:visible;"/>
		</clipPath>
		<rect x="273.1" y="310" class="st51" width="23.2" height="32.1"/>
	</g>
	<g>
		<defs>
			<path id="SVGID_103_" d="M309.1,310.9c-1.9,0.4-3.6,1.3-5.1,2.8c-1.7,1.6-2.8,3.5-3.2,5.6c-0.3,1.4-0.3,12,0,13.3
				c0.4,1.8,1,3,2,4.4c3,3.9,8,5.4,12.6,3.7c2.6-0.9,5.2-3.4,6.3-5.9c0.7-1.6,0.8-2.5,0.9-5.8c0.1-2.9,0-3.2-0.2-3.7
				c-0.5-1-0.4-1-6.1-1h-5.1l-0.4,0.4c-0.8,0.8-0.7,2.1,0.2,2.7c0.4,0.3,0.5,0.3,4.3,0.3h3.8L319,330c-0.1,1.9-0.1,2.3-0.4,3
				c-0.6,1.7-2,3.2-3.5,4.1c-2,1.1-4.8,1.1-6.9,0.1c-1-0.5-2.8-2.3-3.2-3.2c-0.7-1.5-0.8-1.8-0.8-6.9c-0.1-6.4,0.1-7.6,1.2-9.4
				c1.7-2.5,4.3-3.7,7.3-3.3c1.4,0.2,2.5,0.6,3.4,1.4c1.4,1.1,1.6,1.2,2.1,1.2c0.8,0,1.7-0.7,1.7-1.5c0.1-0.8,0-1.1-0.6-1.7
				c-1.2-1.3-3.5-2.5-5.4-2.9C312.7,310.7,310.3,310.7,309.1,310.9"/>
		</defs>
		<clipPath id="SVGID_104_">
			<use xlink:href="#SVGID_103_"  style="overflow:visible;"/>
		</clipPath>
		<rect x="299.9" y="310.1" class="st52" width="23.4" height="32.1"/>
	</g>
	<g>
		<defs>
			<path id="SVGID_105_" d="M284.4,243.2c0,0.3,0.1,0.4,0.3,0.4c0.2,0,0.3-0.1,0.3-0.4c0-0.3-0.1-0.4-0.3-0.4
				C284.4,242.8,284.4,242.9,284.4,243.2"/>
		</defs>
		<clipPath id="SVGID_106_">
			<use xlink:href="#SVGID_105_"  style="overflow:visible;"/>
		</clipPath>
		<rect x="283.7" y="242.1" class="st53" width="1.9" height="2.1"/>
	</g>
	<g>
		<defs>
			<path id="SVGID_107_" d="M339.9,265.5c-0.1,0.2-0.1,0.3,0,0.4c0.1,0.1,0.3-0.2,0.3-0.5C340.2,265.1,340,265.2,339.9,265.5"/>
		</defs>
		<clipPath id="SVGID_108_">
			<use xlink:href="#SVGID_107_"  style="overflow:visible;"/>
		</clipPath>
		<rect x="339.2" y="264.5" class="st54" width="1.7" height="2"/>
	</g>
</g>
</svg>
